<?xml version="1.0" encoding="utf-8"?>
<!-- Generator: Adobe Illustrator 16.0.0, SVG Export Plug-In . SVG Version: 6.00 Build 0)  -->
<!DOCTYPE svg PUBLIC "-//W3C//DTD SVG 1.1//EN" "http://www.w3.org/Graphics/SVG/1.1/DTD/svg11.dtd">
<svg version="1.1" xmlns="http://www.w3.org/2000/svg" xmlns:xlink="http://www.w3.org/1999/xlink" x="0px" y="0px"
	 width="450.32px" height="439.887px" viewBox="0 0 450.32 439.887" enable-background="new 0 0 450.32 439.887"
	 xml:space="preserve">
<g id="Layer_2" display="none">
	<rect x="-5" y="-66.113" display="inline" fill="#DB0F0F" width="521" height="520"/>
</g>
<g id="Layer_1">
	<rect x="-290" y="-150.113" display="none" fill="#1F1F1F" width="1080" height="680"/>
	<polygon fill="#A1A1A1" points="36.367,374.282 34.406,375.915 40.105,382.118 	"/>
	<polygon fill="#1D1D1D" points="162.879,396.243 117.93,409.993 250,439.887 	"/>
	<polygon fill="#373737" points="13.023,372.333 0,439.887 16.031,396.872 	"/>
	<polygon fill="#191919" points="0,189.887 0,439.887 13.023,372.333 	"/>
	<polygon fill="#2F2F2F" points="24.352,199.903 0,189.887 24.695,237.141 	"/>
	<polygon fill="#2B2B2B" points="13.023,372.333 16.031,396.872 19.91,387.618 	"/>
	<polygon fill="#202020" points="0,189.887 24.125,315.594 24.695,237.141 	"/>
	<polygon fill="#4C4C4C" points="41.453,319.438 40.484,327.594 42.207,327.973 	"/>
	<polygon fill="#616161" points="0,189.887 13.023,372.333 24.125,315.594 	"/>
	<polygon fill="#7E7E7E" points="59.176,240.809 60.34,242.985 61.98,239.168 	"/>
	<polygon fill="#404040" points="13.023,372.333 19.91,387.618 31.113,382.657 	"/>
	<polygon fill="#2D2D2D" points="16.031,396.872 0,439.887 31.668,402.051 	"/>
	<polygon fill="#686868" points="31.113,382.657 19.91,387.618 31.668,402.051 	"/>
	<polygon fill="#717171" points="19.91,387.618 16.031,396.872 31.668,402.051 	"/>
	<polygon fill="#252525" points="101.824,362.661 95.906,360.782 103.117,369.165 	"/>
	<polygon fill="#222222" points="42.207,327.973 57.289,338.786 58.852,327.278 	"/>
	<polygon fill="#323232" points="24.125,315.594 13.023,372.333 31.887,340.368 	"/>
	<polygon fill="#363636" points="24.125,315.594 35.664,321.653 35.707,317.149 	"/>
	<polygon fill="#454545" points="33.289,366.27 13.023,372.333 34.406,375.915 	"/>
	<polygon fill="#575757" points="13.023,372.333 31.113,382.657 34.406,375.915 	"/>
	<polygon fill="#3F3F3F" points="32.793,341.079 31.887,340.368 33.289,366.27 	"/>
	<polygon fill="#3B3B3B" points="31.887,340.368 13.023,372.333 33.289,366.27 	"/>
	<polygon fill="#787878" points="34.406,375.915 31.113,382.657 40.105,382.118 	"/>
	<polygon fill="#888888" points="33.289,366.27 34.406,375.915 36.367,374.282 	"/>
	<polygon fill="#2D2D2D" points="24.125,315.594 31.887,340.368 35.664,321.653 	"/>
	<polygon fill="#5B5B5B" points="36.367,374.282 40.105,382.118 44.258,358.583 	"/>
	<polygon fill="#696969" points="31.113,382.657 31.668,402.051 40.105,382.118 	"/>
	<polygon fill="#3A3A3A" points="32.793,341.079 44.258,358.583 45.34,350.911 	"/>
	<polygon fill="#242424" points="45.613,316.25 42.207,327.973 58.852,327.278 	"/>
	<polygon fill="#1E1E1E" points="24.695,237.141 24.125,315.594 40.34,275.54 	"/>
	<polygon fill="#4B4B4B" points="55.812,310.704 45.613,316.25 58.852,327.278 	"/>
	<polygon fill="#282828" points="65.629,191.477 63.848,192.938 69.379,197.325 	"/>
	<polygon fill="#5F5F5F" points="31.887,340.368 32.793,341.079 40.484,327.594 	"/>
	<polygon fill="#494949" points="35.664,321.653 31.887,340.368 40.484,327.594 	"/>
	<polygon fill="#636363" points="32.793,341.079 37.816,339.77 40.484,327.594 	"/>
	<polygon fill="#3E3E3E" points="37.816,339.77 32.793,341.079 45.34,350.911 	"/>
	<polygon fill="#5B5B5B" points="35.664,321.653 40.484,327.594 41.453,319.438 	"/>
	<polygon fill="#8C8C8C" points="35.707,317.149 35.664,321.653 41.453,319.438 	"/>
	<polygon fill="#373737" points="59.176,240.809 49.305,243.872 60.34,242.985 	"/>
	<polygon fill="#7B7B7B" points="40.484,327.594 37.816,339.77 42.207,327.973 	"/>
	<polygon fill="#717171" points="41.453,319.438 42.207,327.973 45.613,316.25 	"/>
	<polygon fill="#1D1D1D" points="113.105,391.333 92.746,374.368 117.93,409.993 	"/>
	<polygon fill="#7D7D7D" points="33.289,366.27 36.367,374.282 44.258,358.583 	"/>
	<polygon fill="#505050" points="32.793,341.079 33.289,366.27 44.258,358.583 	"/>
	<polygon fill="#878787" points="50.402,292.868 55.875,290.145 57.699,283.887 	"/>
	<polygon fill="#505050" points="35.707,317.149 41.453,319.438 45.613,316.25 	"/>
	<polygon fill="#303030" points="46,189.887 24.352,199.903 49.113,195.766 	"/>
	<polygon fill="#787878" points="52.48,273.469 40.34,275.54 57.699,283.887 	"/>
	<polygon fill="#5C5C5C" points="35.707,317.149 45.613,316.25 50.402,292.868 	"/>
	<polygon fill="#404040" points="24.695,237.141 40.34,275.54 46.555,266.973 	"/>
	<polygon fill="#3C3C3C" points="24.695,237.141 47.723,242.688 49.113,195.766 	"/>
	<polygon fill="#4C4C4C" points="24.695,237.141 46.555,266.973 47.723,242.688 	"/>
	<polygon fill="#3E3E3E" points="47.723,242.688 46.555,266.973 49.305,243.872 	"/>
	<polygon fill="#2D2D2D" points="24.352,199.903 24.695,237.141 49.113,195.766 	"/>
	<polygon fill="#444444" points="69.234,315.985 58.852,327.278 69.617,316.375 	"/>
	<polygon fill="#282828" points="63.848,192.938 62.289,197.524 69.379,197.325 	"/>
	<polygon fill="#222222" points="24.125,315.594 35.707,317.149 50.402,292.868 	"/>
	<polygon fill="#404040" points="40.34,275.54 24.125,315.594 50.402,292.868 	"/>
	<polygon fill="#252525" points="78.367,344.129 92.746,374.368 95.906,360.782 	"/>
	<polygon fill="#5C5C5C" points="57.699,283.887 62.793,288.809 64.953,277.981 	"/>
	<polygon fill="#545454" points="46,189.887 49.113,195.766 52,191.887 	"/>
	<polygon fill="#8D8D8D" points="46.555,266.973 40.34,275.54 52.48,273.469 	"/>
	<polygon fill="#656565" points="63.699,269.368 73.547,273.243 80.043,263.657 	"/>
	<polygon fill="#FEFEFE" points="50,186.887 52,191.887 55,184.887 	"/>
	<polygon fill="#353535" points="74.688,308.102 89.055,329.336 90.902,298.063 	"/>
	<polygon fill="#8E8E8E" points="50.402,292.868 54.305,291.872 55.875,290.145 	"/>
	<polygon fill="#1C1C1C" points="45.613,316.25 55.812,310.704 57.543,301.75 	"/>
	<polygon fill="#515151" points="81.902,339.047 81.492,339.793 82.23,344.395 	"/>
	<polygon fill="#4B4B4B" points="49.113,195.766 47.723,242.688 66.715,219.204 	"/>
	<polygon fill="#343434" points="42.207,327.973 37.816,339.77 57.289,338.786 	"/>
	<polygon fill="#333333" points="37.816,339.77 45.34,350.911 57.289,338.786 	"/>
	<polygon fill="#1E1E1E" points="50.402,292.868 45.613,316.25 57.543,301.75 	"/>
	<polygon fill="#383838" points="54.305,291.872 50.402,292.868 57.543,301.75 	"/>
	<polygon fill="#373737" points="40.34,275.54 50.402,292.868 57.699,283.887 	"/>
	<polygon fill="#7A7A7A" points="63.699,269.368 52.48,273.469 64.953,277.981 	"/>
	<polygon fill="#393939" points="55.875,290.145 62.145,296.11 62.793,288.809 	"/>
	<polygon fill="#434343" points="47.723,242.688 49.305,243.872 59.176,240.809 	"/>
	<polygon fill="#3F3F3F" points="52,191.887 49.113,195.766 62.289,197.524 	"/>
	<polygon fill="#7D7D7D" points="64.562,252.165 46.555,266.973 66.539,256.903 	"/>
	<polygon fill="#808080" points="52.48,273.469 57.699,283.887 64.953,277.981 	"/>
	<polygon fill="#7D7D7D" points="106.352,279.668 100.41,290.098 111.816,291.344 	"/>
	<polygon fill="#626262" points="46.555,266.973 52.48,273.469 63.699,269.368 	"/>
	<polygon fill="#272727" points="58.852,327.278 57.289,338.786 67.062,340.583 	"/>
	<polygon fill="#333333" points="55,184.887 63.848,192.938 65.629,191.477 	"/>
	<polygon fill="#4A4A4A" points="55.875,290.145 54.305,291.872 62.145,296.11 	"/>
	<polygon fill="#353535" points="54.305,291.872 57.543,301.75 62.145,296.11 	"/>
	<polygon fill="#717171" points="57.699,283.887 55.875,290.145 62.793,288.809 	"/>
	<polygon fill="#727272" points="60.34,242.985 49.305,243.872 64.562,252.165 	"/>
	<polygon fill="#696969" points="61.98,239.168 60.34,242.985 63.219,243.243 	"/>
	<polygon fill="#4C4C4C" points="49.305,243.872 46.555,266.973 64.562,252.165 	"/>
	<polygon fill="#242424" points="62.145,296.11 57.543,301.75 66.48,305.395 	"/>
	<polygon fill="#A4A4A4" points="55,184.887 65.629,191.477 70.688,182.219 	"/>
	<polygon fill="#1E1E1E" points="55,184.887 52,191.887 63.848,192.938 	"/>
	<polygon fill="#262626" points="52,191.887 62.289,197.524 63.848,192.938 	"/>
	<polygon fill="#5F5F5F" points="63.219,243.243 60.34,242.985 64.562,252.165 	"/>
	<polygon fill="#3F3F3F" points="66.48,305.395 55.812,310.704 69.234,315.985 	"/>
	<polygon fill="#8E8E8E" points="46.555,266.973 63.699,269.368 66.539,256.903 	"/>
	<polygon fill="#666666" points="72.77,231.391 63.219,243.243 76.57,252.418 	"/>
	<polygon fill="#5E5E5E" points="63.699,269.368 71.852,275.571 73.547,273.243 	"/>
	<polygon fill="#2D2D2D" points="62.289,197.524 49.113,195.766 66.715,219.204 	"/>
	<polygon fill="#1F1F1F" points="57.543,301.75 55.812,310.704 66.48,305.395 	"/>
	<polygon fill="#1C1C1C" points="57.289,338.786 45.34,350.911 67.062,340.583 	"/>
	<polygon fill="#414141" points="47.723,242.688 59.176,240.809 66.715,219.204 	"/>
	<polygon fill="#696969" points="59.176,240.809 61.98,239.168 66.715,219.204 	"/>
	<polygon fill="#9B9B9B" points="63.219,243.243 64.562,252.165 76.57,252.418 	"/>
	<polygon fill="#7C7C7C" points="71.852,275.571 62.793,288.809 84.277,298.512 	"/>
	<polygon fill="#3C3C3C" points="66.48,305.395 74.688,308.102 84.277,298.512 	"/>
	<polygon fill="#232323" points="45.34,350.911 44.258,358.583 67.062,340.583 	"/>
	<polygon fill="#252525" points="55.812,310.704 58.852,327.278 69.234,315.985 	"/>
	<polygon fill="#5B5B5B" points="74.688,308.102 69.617,316.375 82.844,328.567 	"/>
	<polygon fill="#6D6D6D" points="66.539,256.903 63.699,269.368 80.043,263.657 	"/>
	<polygon fill="#262626" points="69.379,197.325 62.289,197.524 71.125,199.668 	"/>
	<polygon fill="#252525" points="62.289,197.524 66.715,219.204 71.125,199.668 	"/>
	<polygon fill="#292929" points="82.23,344.395 78.367,344.129 95.906,360.782 	"/>
	<polygon fill="#464646" points="62.145,296.11 66.48,305.395 84.277,298.512 	"/>
	<polygon fill="#252525" points="67.062,340.583 44.258,358.583 78.367,344.129 	"/>
	<polygon fill="#515151" points="63.699,269.368 64.953,277.981 71.852,275.571 	"/>
	<polygon fill="#808080" points="84.277,298.512 90.902,298.063 92.277,279.481 	"/>
	<polygon fill="#434343" points="64.953,277.981 62.793,288.809 71.852,275.571 	"/>
	<polygon fill="#6B6B6B" points="61.98,239.168 63.219,243.243 72.77,231.391 	"/>
	<polygon fill="#5A5A5A" points="66.715,219.204 61.98,239.168 72.77,231.391 	"/>
	<polygon fill="#5D5D5D" points="69.234,315.985 69.617,316.375 74.688,308.102 	"/>
	<polygon fill="#252525" points="87.133,272.375 71.852,275.571 92.277,279.481 	"/>
	<polygon fill="#323232" points="67.062,340.583 81.902,339.047 82.844,328.567 	"/>
	<polygon fill="#3C3C3C" points="66.48,305.395 69.234,315.985 74.688,308.102 	"/>
	<polygon fill="#626262" points="64.562,252.165 66.539,256.903 76.57,252.418 	"/>
	<polygon fill="#858585" points="67.062,340.583 81.492,339.793 81.902,339.047 	"/>
	<polygon fill="#545454" points="69.617,316.375 58.852,327.278 82.844,328.567 	"/>
	<polygon fill="#252525" points="69.379,197.325 71.125,199.668 79.047,188.676 	"/>
	<polygon fill="#303030" points="65.629,191.477 69.379,197.325 79.047,188.676 	"/>
	<polygon fill="#202020" points="70.688,182.219 65.629,191.477 79.047,188.676 	"/>
	<polygon fill="#686868" points="76.57,252.418 66.539,256.903 80.043,263.657 	"/>
	<polygon fill="#333333" points="58.852,327.278 67.062,340.583 82.844,328.567 	"/>
	<polygon fill="#525252" points="62.793,288.809 62.145,296.11 84.277,298.512 	"/>
	<polygon fill="#505050" points="81.492,339.793 78.367,344.129 82.23,344.395 	"/>
	<polygon fill="#292929" points="67.062,340.583 78.367,344.129 81.492,339.793 	"/>
	<polygon fill="#868686" points="71.852,275.571 84.277,298.512 92.277,279.481 	"/>
	<polygon fill="#3F3F3F" points="96.312,236.868 87.898,249.61 97.984,238.668 	"/>
	<polygon fill="#232323" points="95.906,360.782 92.746,374.368 103.117,369.165 	"/>
	<polygon fill="#414141" points="82.844,328.567 81.902,339.047 89.055,329.336 	"/>
	<polygon fill="#383838" points="76.57,252.418 80.043,263.657 87.898,249.61 	"/>
	<polygon fill="#5A5A5A" points="81.902,339.047 82.23,344.395 87.105,341.387 	"/>
	<polygon fill="#313131" points="80.043,263.657 73.547,273.243 87.133,272.375 	"/>
	<polygon fill="#1B1B1B" points="40.105,382.118 31.668,402.051 92.746,374.368 	"/>
	<polygon fill="#6D6D6D" points="72.77,231.391 76.57,252.418 87.898,249.61 	"/>
	<polygon fill="#505050" points="72.77,231.391 87.898,249.61 96.312,236.868 	"/>
	<polygon fill="#1D1D1D" points="73.547,273.243 71.852,275.571 87.133,272.375 	"/>
	<polygon fill="#2A2A2A" points="84.277,298.512 74.688,308.102 90.902,298.063 	"/>
	<polygon fill="#494949" points="74.688,308.102 82.844,328.567 89.055,329.336 	"/>
	<polygon fill="#686868" points="81.902,339.047 87.105,341.387 89.055,329.336 	"/>
	<polygon fill="#353535" points="90.902,298.063 89.055,329.336 103.105,328.016 	"/>
	<polygon fill="#212121" points="92.746,374.368 31.668,402.051 117.93,409.993 	"/>
	<polygon fill="#2C2C2C" points="44.258,358.583 40.105,382.118 92.746,374.368 	"/>
	<polygon fill="#2F2F2F" points="78.367,344.129 44.258,358.583 92.746,374.368 	"/>
	<polygon fill="#1B1B1B" points="113.922,329.954 103.105,328.016 114.574,339.196 	"/>
	<polygon fill="#282828" points="108.352,356.949 106.164,356.826 109.102,360.54 	"/>
	<polygon fill="#939393" points="87.898,249.61 80.043,263.657 99.293,262.508 	"/>
	<polygon fill="#272727" points="87.133,272.375 92.277,279.481 96.355,272.024 	"/>
	<polygon fill="#272727" points="103.891,356.61 106.164,356.826 107.312,354.208 	"/>
	<polygon fill="#272727" points="82.23,344.395 95.906,360.782 99.086,356.887 	"/>
	<polygon fill="#9E9E9E" points="87.133,272.375 96.355,272.024 99.293,262.508 	"/>
	<polygon fill="#292929" points="80.043,263.657 87.133,272.375 99.293,262.508 	"/>
	<polygon fill="#292929" points="99.988,171.43 87,176.887 100.191,175.563 	"/>
	<polygon fill="#2D2D2D" points="87.105,341.387 82.23,344.395 99.086,356.887 	"/>
	<polygon fill="#1D1D1D" points="104.688,350.786 103.891,356.61 107.312,354.208 	"/>
	<polygon fill="#1D1D1D" points="106.164,356.826 101.824,362.661 109.102,360.54 	"/>
	<polygon fill="#1C1C1C" points="100.41,290.098 90.902,298.063 101.047,291.438 	"/>
	<polygon fill="#7B7B7B" points="97.984,238.668 87.898,249.61 99.293,262.508 	"/>
	<polygon fill="#2C2C2C" points="103.891,356.61 101.824,362.661 106.164,356.826 	"/>
	<polygon fill="#D8D8D8" points="95.832,154.078 87,176.887 99.988,171.43 	"/>
	<polygon fill="#A7A7A7" points="107.973,279.625 106.352,279.668 111.816,291.344 	"/>
	<polygon fill="#7C7C7C" points="101.047,291.438 111.031,293.215 111.816,291.344 	"/>
	<polygon fill="#272727" points="87,176.887 79.047,188.676 100.191,175.563 	"/>
	<polygon fill="#151515" points="92.277,279.481 90.902,298.063 100.41,290.098 	"/>
	<polygon fill="#1B1B1B" points="116.348,136.196 95.832,154.078 117.078,147.375 	"/>
	<polygon fill="#2D2D2D" points="79.047,188.676 107.805,214.676 110.059,199.731 	"/>
	<polygon fill="#333333" points="99.086,356.887 103.891,356.61 104.688,350.786 	"/>
	<polygon fill="#232323" points="99.086,356.887 95.906,360.782 101.824,362.661 	"/>
	<polygon fill="#202020" points="99.988,171.43 100.191,175.563 103.637,167.969 	"/>
	<polygon fill="#2F2F2F" points="89.055,329.336 87.105,341.387 103.105,328.016 	"/>
	<polygon fill="#313131" points="111.898,204.594 107.805,214.676 112.91,213.024 	"/>
	<polygon fill="#202020" points="103.105,328.016 113.922,329.954 115.152,311.172 	"/>
	<polygon fill="#8E8E8E" points="106.352,279.668 107.973,279.625 108.062,272.524 	"/>
	<polygon fill="#292929" points="103.105,328.016 87.105,341.387 104.688,350.786 	"/>
	<polygon fill="#1D1D1D" points="103.117,369.165 92.746,374.368 113.105,391.333 	"/>
	<polygon fill="#282828" points="95.832,154.078 99.988,171.43 103.637,167.969 	"/>
	<polygon fill="#DBDBDB" points="116.414,349.274 120.406,350.692 121.18,340.512 	"/>
	<polygon fill="#2E2E2E" points="87.105,341.387 99.086,356.887 104.688,350.786 	"/>
	<polygon fill="#2D2D2D" points="99.086,356.887 101.824,362.661 103.891,356.61 	"/>
	<polygon fill="#1F1F1F" points="31.668,402.051 0,439.887 117.93,409.993 	"/>
	<polygon fill="#686868" points="99.293,262.508 96.355,272.024 107.152,269.543 	"/>
	<polygon fill="#595959" points="96.355,272.024 92.277,279.481 106.352,279.668 	"/>
	<polygon fill="#2E2E2E" points="92.277,279.481 100.41,290.098 106.352,279.668 	"/>
	<polygon fill="#A7A7A7" points="128.254,317.129 131.777,328.579 133.621,323.262 	"/>
	<polygon fill="#323232" points="71.125,199.668 66.715,219.204 107.805,214.676 	"/>
	<polygon fill="#474747" points="66.715,219.204 72.77,231.391 107.805,214.676 	"/>
	<polygon fill="#383838" points="72.77,231.391 96.312,236.868 107.805,214.676 	"/>
	<polygon fill="#323232" points="79.047,188.676 71.125,199.668 107.805,214.676 	"/>
	<polygon fill="#3A3A3A" points="191.762,382.954 173.422,384.793 192.406,384.672 	"/>
	<polygon fill="#1A1A1A" points="110.059,199.731 107.805,214.676 111.898,204.594 	"/>
	<polygon fill="#717171" points="101.047,291.438 111.027,294.618 111.031,293.215 	"/>
	<polygon fill="#626262" points="107.152,269.543 96.355,272.024 108.062,272.524 	"/>
	<polygon fill="#939393" points="96.355,272.024 106.352,279.668 108.062,272.524 	"/>
	<polygon fill="#292929" points="100.191,175.563 79.047,188.676 110.059,199.731 	"/>
	<polygon fill="#E1E1E1" points="116.414,349.274 108.352,356.949 117.105,359.028 	"/>
	<polygon fill="#1E1E1E" points="107.312,354.208 106.164,356.826 108.352,356.949 	"/>
	<polygon fill="#232323" points="101.824,362.661 103.117,369.165 109.102,360.54 	"/>
	<polygon fill="#E4E4E4" points="118.254,363.028 109.102,360.54 119.277,366.34 	"/>
	<polygon fill="#181818" points="134.754,394.782 130.613,401.739 136.707,401.024 	"/>
	<polygon fill="#DBDBDB" points="114.574,339.196 116.414,349.274 121.18,340.512 	"/>
	<polygon fill="#191919" points="101.047,291.438 90.902,298.063 111.027,294.618 	"/>
	<polygon fill="#272727" points="111.898,204.594 112.91,213.024 114.711,212.098 	"/>
	<polygon fill="#212121" points="118.922,222.032 118.207,228.817 119.66,223.727 	"/>
	<polygon fill="#2E2E2E" points="100.41,290.098 101.047,291.438 111.816,291.344 	"/>
	<polygon fill="#A9A9A9" points="111.031,293.215 111.027,294.618 111.816,291.344 	"/>
	<polygon fill="#A4A4A4" points="124.363,209.012 114.711,212.098 127.242,216.114 	"/>
	<polygon fill="#1A1A1A" points="111.027,294.618 90.902,298.063 115.152,311.172 	"/>
	<polygon fill="#1C1C1C" points="90.902,298.063 103.105,328.016 115.152,311.172 	"/>
	<polygon fill="#2C2C2C" points="104.688,350.786 107.312,354.208 112.039,347.719 	"/>
	<polygon fill="#2D2D2D" points="97.984,238.668 99.293,262.508 112.152,251.352 	"/>
	<polygon fill="#4C4C4C" points="99.293,262.508 107.152,269.543 112.152,251.352 	"/>
	<polygon fill="#131313" points="108.352,356.949 109.102,360.54 117.105,359.028 	"/>
	<polygon fill="#232323" points="109.102,360.54 103.117,369.165 119.277,366.34 	"/>
	<polygon fill="#232323" points="95.832,154.078 103.637,167.969 117.078,147.375 	"/>
	<polygon fill="#D9D9D9" points="119.277,366.34 113.105,391.333 121.262,367.614 	"/>
	<polygon fill="#181818" points="160.109,263.461 146.766,277.067 164.66,295.208 	"/>
	<polygon fill="#CFCFCF" points="114.574,339.196 112.039,347.719 116.414,349.274 	"/>
	<polygon fill="#DCDCDC" points="104.688,350.786 112.039,347.719 114.574,339.196 	"/>
	<polygon fill="#525252" points="103.105,328.016 104.688,350.786 114.574,339.196 	"/>
	<polygon fill="#1A1A1A" points="161.609,394.329 136.707,401.024 162.879,396.243 	"/>
	<polygon fill="#040404" points="113.922,329.954 114.574,339.196 121.18,340.512 	"/>
	<polygon fill="#272727" points="103.117,369.165 113.105,391.333 119.277,366.34 	"/>
	<polygon fill="#DBDBDB" points="112.039,347.719 107.312,354.208 116.414,349.274 	"/>
	<polygon fill="#CECECE" points="120.406,350.692 118.254,363.028 121.262,367.614 	"/>
	<polygon fill="#CCCCCC" points="133.621,323.262 137.395,325.668 138.934,311.458 	"/>
	<polygon fill="#363636" points="107.312,354.208 108.352,356.949 116.414,349.274 	"/>
	<polygon fill="#D6D6D6" points="118.254,363.028 119.277,366.34 121.262,367.614 	"/>
	<polygon fill="#4C4C4C" points="107.805,214.676 118.207,228.817 118.922,222.032 	"/>
	<polygon fill="#222222" points="107.805,214.676 96.312,236.868 118.207,228.817 	"/>
	<polygon fill="#202020" points="97.984,238.668 112.152,251.352 118.207,228.817 	"/>
	<polygon fill="#D9D9D9" points="128.602,83.758 124,90.887 128.625,91.442 	"/>
	<polygon fill="#2D2D2D" points="96.312,236.868 97.984,238.668 118.207,228.817 	"/>
	<polygon fill="#515151" points="113.105,391.333 117.93,409.993 124.332,403.661 	"/>
	<polygon fill="#1C1C1C" points="114.711,212.098 112.91,213.024 118.922,222.032 	"/>
	<polygon fill="#E4E4E4" points="117.105,359.028 109.102,360.54 118.254,363.028 	"/>
	<polygon fill="#BBBBBB" points="124,90.887 124,100.887 128.625,91.442 	"/>
	<polygon fill="#1B1B1B" points="112.91,213.024 107.805,214.676 118.922,222.032 	"/>
	<polygon fill="#1F1F1F" points="118.207,228.817 112.152,251.352 119.402,247.848 	"/>
	<polygon fill="#666666" points="114.711,212.098 118.922,222.032 127.242,216.114 	"/>
	<polygon fill="#3F3F3F" points="135.797,391.067 134.754,394.782 136.707,401.024 	"/>
	<polygon fill="#FEFEFE" points="126.898,82.075 124,90.887 128.602,83.758 	"/>
	<polygon fill="#7F7F7F" points="110.059,199.731 111.898,204.594 121.84,197.559 	"/>
	<polygon fill="#D8D8D8" points="116.414,349.274 117.105,359.028 120.406,350.692 	"/>
	<polygon fill="#D6D6D6" points="117.105,359.028 118.254,363.028 120.406,350.692 	"/>
	<polygon fill="#1E1E1E" points="128.828,296.122 111.027,294.618 129.426,302.04 	"/>
	<polygon fill="#232323" points="147.293,383.059 136.707,401.024 161.609,394.329 	"/>
	<polygon fill="#1D1D1D" points="117.078,147.375 103.637,167.969 123.523,168.371 	"/>
	<polygon fill="#D0D0D0" points="121.18,340.512 120.406,350.692 131.777,328.579 	"/>
	<polygon fill="#333333" points="100.191,175.563 110.059,199.731 121.84,197.559 	"/>
	<polygon fill="#AFAFAF" points="128.625,91.442 124,100.887 132.805,104.407 	"/>
	<polygon fill="#1A1A1A" points="129.426,302.04 115.152,311.172 130.105,303.43 	"/>
	<polygon fill="#1B1B1B" points="124.332,403.661 117.93,409.993 126.969,403.813 	"/>
	<polygon fill="#181818" points="103.637,167.969 100.191,175.563 123.523,168.371 	"/>
	<polygon fill="#656565" points="139.773,191.379 128.156,216.02 141.352,227.899 	"/>
	<polygon fill="#D7D7D7" points="137.395,325.668 120.406,350.692 146.305,380.774 	"/>
	<polygon fill="#1E1E1E" points="119.66,223.727 118.207,228.817 123.707,230.868 	"/>
	<polygon fill="#1E1E1E" points="119.402,247.848 112.152,251.352 127.25,277.598 	"/>
	<polygon fill="#1A1A1A" points="130.613,401.739 126.969,403.813 136.707,401.024 	"/>
	<polygon fill="#202020" points="118.207,228.817 119.402,247.848 123.988,234.918 	"/>
	<polygon fill="#1D1D1D" points="123.707,230.868 118.207,228.817 123.988,234.918 	"/>
	<polygon fill="#282828" points="128.602,83.758 137.266,97.235 141.285,73.883 	"/>
	<polygon fill="#9B9B9B" points="128.156,216.02 132.332,224.536 141.352,227.899 	"/>
	<polygon fill="#323232" points="111.898,204.594 114.711,212.098 124.363,209.012 	"/>
	<polygon fill="#B4B4B4" points="121.84,197.559 111.898,204.594 124.363,209.012 	"/>
	<polygon fill="#3F3F3F" points="116.348,136.196 117.078,147.375 125.355,146.364 	"/>
	<polygon fill="#636363" points="119.086,130.969 116.348,136.196 125.355,146.364 	"/>
	<polygon fill="#AEAEAE" points="130.238,222.231 131.992,225.497 132.332,224.536 	"/>
	<polygon fill="#202020" points="117.078,147.375 123.523,168.371 125.355,146.364 	"/>
	<polygon fill="#7B7B7B" points="112.152,251.352 107.152,269.543 127.25,277.598 	"/>
	<polygon fill="#B1B1B1" points="127.242,216.114 128.121,217.958 128.156,216.02 	"/>
	<polygon fill="#AAAAAA" points="124.363,209.012 127.242,216.114 128.156,216.02 	"/>
	<polygon fill="#535353" points="108.062,272.524 107.973,279.625 127.25,277.598 	"/>
	<polygon fill="#525252" points="107.973,279.625 111.816,291.344 127.25,277.598 	"/>
	<polygon fill="#363636" points="107.152,269.543 108.062,272.524 127.25,277.598 	"/>
	<polygon fill="#7C7C7C" points="115.152,311.172 128.254,317.129 130.105,303.43 	"/>
	<polygon fill="#292929" points="111.816,291.344 128.828,296.122 130.922,289.84 	"/>
	<polygon fill="#404040" points="118.922,222.032 119.66,223.727 128.121,217.958 	"/>
	<polygon fill="#A1A1A1" points="127.242,216.114 118.922,222.032 128.121,217.958 	"/>
	<polygon fill="#C6C6C6" points="123.523,168.371 100.191,175.563 130.418,185.426 	"/>
	<polygon fill="#8F8F8F" points="128.121,217.958 119.66,223.727 130.238,222.231 	"/>
	<polygon fill="#C3C3C3" points="137.266,97.235 132.805,104.407 137.988,101.317 	"/>
	<polygon fill="#1E1E1E" points="129.426,302.04 130.105,303.43 131.504,302.981 	"/>
	<polygon fill="#C2C2C2" points="100.191,175.563 121.84,197.559 130.418,185.426 	"/>
	<polygon fill="#131313" points="115.152,311.172 113.922,329.954 128.254,317.129 	"/>
	<polygon fill="#5A5A5A" points="162.965,51.957 154.707,79.344 178.773,52.168 	"/>
	<polygon fill="#BABABA" points="124,100.887 123,119.887 132.805,104.407 	"/>
	<polygon fill="#D9D9D9" points="122,124.887 119.086,130.969 132.66,142.871 	"/>
	<polygon fill="#A8A8A8" points="128.156,216.02 130.238,222.231 132.332,224.536 	"/>
	<polygon fill="#353535" points="127.25,277.598 111.816,291.344 130.922,289.84 	"/>
	<polygon fill="#1A1A1A" points="111.027,294.618 115.152,311.172 129.426,302.04 	"/>
	<polygon fill="#444444" points="111.816,291.344 111.027,294.618 128.828,296.122 	"/>
	<polygon fill="#363636" points="119.66,223.727 123.707,230.868 130.238,222.231 	"/>
	<polygon fill="#575757" points="113.105,391.333 134.754,394.782 135.797,391.067 	"/>
	<polygon fill="#ACACAC" points="128.156,216.02 128.121,217.958 130.238,222.231 	"/>
	<polygon fill="#929292" points="132.332,224.536 134.605,251.461 141.352,227.899 	"/>
	<polygon fill="#191919" points="123.707,230.868 123.988,234.918 131.992,225.497 	"/>
	<polygon fill="#4B4B4B" points="128.254,317.129 113.922,329.954 131.777,328.579 	"/>
	<polygon fill="#969696" points="134.605,251.461 131.992,225.497 141.352,227.899 	"/>
	<polygon fill="#1E1E1E" points="123.988,234.918 119.402,247.848 134.605,251.461 	"/>
	<polygon fill="#1A1A1A" points="124.332,403.661 126.969,403.813 130.613,401.739 	"/>
	<polygon fill="#D2D2D2" points="113.922,329.954 121.18,340.512 131.777,328.579 	"/>
	<polygon fill="#373737" points="128.828,296.122 129.426,302.04 131.504,302.981 	"/>
	<polygon fill="#C1C1C1" points="121.262,367.614 113.105,391.333 135.797,391.067 	"/>
	<polygon fill="#8D8D8D" points="132.332,224.536 131.992,225.497 134.605,251.461 	"/>
	<polygon fill="#B2B2B2" points="137.293,267.735 127.25,277.598 140.562,275.637 	"/>
	<polygon fill="#909090" points="130.238,222.231 123.707,230.868 131.992,225.497 	"/>
	<polygon fill="#E3E3E3" points="123,119.887 122,124.887 132.66,142.871 	"/>
	<polygon fill="#777777" points="125.355,146.364 123.523,168.371 132.66,142.871 	"/>
	<polygon fill="#E1E1E1" points="182.812,211.551 185.043,209.954 186,193.887 	"/>
	<polygon fill="#565656" points="119.086,130.969 125.355,146.364 132.66,142.871 	"/>
	<polygon fill="#1A1A1A" points="126.969,403.813 117.93,409.993 136.707,401.024 	"/>
	<polygon fill="#494949" points="159.23,27.043 152,39.887 162.918,48.176 	"/>
	<polygon fill="#D1D1D1" points="120.406,350.692 121.262,367.614 146.305,380.774 	"/>
	<polygon fill="#1A1A1A" points="136.707,401.024 117.93,409.993 162.879,396.243 	"/>
	<polygon fill="#191919" points="124.332,403.661 130.613,401.739 134.754,394.782 	"/>
	<polygon fill="#757575" points="113.105,391.333 124.332,403.661 134.754,394.782 	"/>
	<polygon fill="#CECECE" points="133.621,323.262 131.777,328.579 137.395,325.668 	"/>
	<polygon fill="#2F2F2F" points="127.25,277.598 130.922,289.84 136.125,281.668 	"/>
	<polygon fill="#A1A1A1" points="131.992,225.497 123.988,234.918 141.352,227.899 	"/>
	<polygon fill="#BABABA" points="128.625,91.442 132.805,104.407 137.266,97.235 	"/>
	<polygon fill="#292929" points="203.539,221.446 193.789,229.833 207.102,228.188 	"/>
	<polygon fill="#1B1B1B" points="134.605,251.461 119.402,247.848 137.293,267.735 	"/>
	<polygon fill="#1D1D1D" points="119.402,247.848 127.25,277.598 137.293,267.735 	"/>
	<polygon fill="#5E5E5E" points="128.602,83.758 128.625,91.442 137.266,97.235 	"/>
	<polygon fill="#939393" points="131.777,328.579 120.406,350.692 137.395,325.668 	"/>
	<polygon fill="#C6C6C6" points="121.262,367.614 135.797,391.067 146.305,380.774 	"/>
	<polygon fill="#888888" points="141.352,227.899 123.988,234.918 145.141,245.848 	"/>
	<polygon fill="#A1A1A1" points="128.254,317.129 133.621,323.262 138.934,311.458 	"/>
	<polygon points="130.105,303.43 128.254,317.129 138.934,311.458 	"/>
	<polygon fill="#040404" points="131.504,302.981 130.105,303.43 138.934,311.458 	"/>
	<polygon fill="#A2A2A2" points="124.363,209.012 128.156,216.02 139.773,191.379 	"/>
	<polygon fill="#B4B4B4" points="121.84,197.559 124.363,209.012 139.773,191.379 	"/>
	<polygon fill="#8F8F8F" points="130.418,185.426 121.84,197.559 139.773,191.379 	"/>
	<polygon fill="#818181" points="127.25,277.598 136.125,281.668 140.562,275.637 	"/>
	<polygon fill="#6E6E6E" points="145.141,245.848 146.547,247.696 149.617,239.735 	"/>
	<polygon fill="#949494" points="136.125,281.668 130.922,289.84 142.836,294.852 	"/>
	<polygon fill="#1B1B1B" points="123.988,234.918 134.605,251.461 145.141,245.848 	"/>
	<polygon fill="#232323" points="146.547,247.696 134.605,251.461 147.445,259.063 	"/>
	<polygon fill="#222222" points="130.922,289.84 128.828,296.122 142.836,294.852 	"/>
	<polygon fill="#494949" points="128.828,296.122 131.504,302.981 142.836,294.852 	"/>
	<polygon fill="#272727" points="148.062,63.699 145.957,67.672 154.707,79.344 	"/>
	<polygon fill="#2D2D2D" points="141,59.887 141.285,73.883 145.957,67.672 	"/>
	<polygon fill="#D7D7D7" points="137.293,267.735 140.562,275.637 146.766,277.067 	"/>
	<polygon fill="#C4C4C4" points="131.504,302.981 138.934,311.458 142.836,294.852 	"/>
	<polygon fill="#323232" points="153.883,50.028 152.734,55.578 155.543,50.699 	"/>
	<polygon fill="#5B5B5B" points="137.266,97.235 149.008,99.961 152.703,82.543 	"/>
	<polygon fill="#101010" points="134.605,251.461 137.293,267.735 147.445,259.063 	"/>
	<polygon fill="#646464" points="141.352,227.899 145.141,245.848 149.617,239.735 	"/>
	<polygon fill="#666666" points="145.141,245.848 134.605,251.461 146.547,247.696 	"/>
	<polygon fill="#C4C4C4" points="149.008,99.961 132.805,104.407 162,134.184 	"/>
	<polygon fill="#A4A4A4" points="137.293,267.735 146.766,277.067 147.445,259.063 	"/>
	<polygon fill="#BDBDBD" points="140.562,275.637 136.125,281.668 146.766,277.067 	"/>
	<polygon fill="#B4B4B4" points="136.125,281.668 142.836,294.852 146.766,277.067 	"/>
	<polygon fill="#414141" points="149.617,239.735 146.547,247.696 160.109,263.461 	"/>
	<polygon fill="#3B3B3B" points="141.285,73.883 137.266,97.235 152.703,82.543 	"/>
	<polygon fill="#BFBFBF" points="132.66,142.871 156,164.887 162,134.184 	"/>
	<polygon fill="#3E3E3E" points="135.797,391.067 136.707,401.024 147.293,383.059 	"/>
	<polygon fill="#CCCCCC" points="146.305,380.774 135.797,391.067 147.293,383.059 	"/>
	<polygon fill="#252525" points="146.547,247.696 147.445,259.063 160.109,263.461 	"/>
	<polygon fill="#373737" points="149,48.887 152.734,55.578 153.883,50.028 	"/>
	<polygon fill="#282828" points="141,59.887 145.957,67.672 147.48,62.25 	"/>
	<polygon fill="#383838" points="147.48,62.25 145.957,67.672 148.062,63.699 	"/>
	<polygon fill="#2A2A2A" points="152,39.887 153.883,50.028 155.543,50.699 	"/>
	<polygon fill="#B7B7B7" points="142.836,294.852 150.863,303.516 162.398,298.899 	"/>
	<polygon fill="#BABABA" points="137.988,101.317 132.805,104.407 149.008,99.961 	"/>
	<polygon fill="#DFDFDF" points="137.266,97.235 137.988,101.317 149.008,99.961 	"/>
	<polygon fill="#767676" points="180.727,224.965 184.371,233.469 188.41,229.149 	"/>
	<polygon fill="#D0D0D0" points="139.773,191.379 163,218.887 164.895,198.223 	"/>
	<polygon fill="#CCCCCC" points="138.934,311.458 137.395,325.668 150.863,303.516 	"/>
	<polygon fill="#D1D1D1" points="142.836,294.852 138.934,311.458 150.863,303.516 	"/>
	<polygon fill="#383838" points="162.918,48.176 155.543,50.699 162.965,51.957 	"/>
	<polygon fill="#3B3B3B" points="155.543,50.699 152.734,55.578 162.965,51.957 	"/>
	<polygon fill="#4C4C4C" points="152,39.887 149,48.887 153.883,50.028 	"/>
	<polygon fill="#1F1F1F" points="147.48,62.25 148.062,63.699 152.734,55.578 	"/>
	<polygon fill="#343434" points="141,59.887 147.48,62.25 152.734,55.578 	"/>
	<polygon fill="#5B5B5B" points="149,48.887 142.859,50.114 152.734,55.578 	"/>
	<polygon fill="#7F7F7F" points="142.859,50.114 141,59.887 152.734,55.578 	"/>
	<polygon fill="#A5A5A5" points="244.754,190.133 239.723,198.762 246.129,201.895 	"/>
	<polygon fill="#363636" points="141.285,73.883 152.703,82.543 154.707,79.344 	"/>
	<polygon fill="#222222" points="145.957,67.672 141.285,73.883 154.707,79.344 	"/>
	<polygon fill="#C0C0C0" points="132.66,142.871 123.523,168.371 156,164.887 	"/>
	<polygon fill="#CECECE" points="123.523,168.371 130.418,185.426 156,164.887 	"/>
	<polygon fill="#D4D4D4" points="130.418,185.426 139.773,191.379 156,164.887 	"/>
	<polygon fill="#D4D4D4" points="170.629,235.922 149.617,239.735 174.621,242.653 	"/>
	<polygon fill="#D4D4D4" points="156,164.887 139.773,191.379 164.895,198.223 	"/>
	<polygon fill="#E8E8E8" points="164.895,198.223 182.812,211.551 186,193.887 	"/>
	<polygon fill="#1D1D1D" points="147.445,259.063 146.766,277.067 160.109,263.461 	"/>
	<polygon fill="#323232" points="142.836,294.852 162.398,298.899 164.66,295.208 	"/>
	<polygon fill="#B2B2B2" points="146.766,277.067 142.836,294.852 164.66,295.208 	"/>
	<polygon fill="#404040" points="173.422,384.793 162.879,396.243 192.406,384.672 	"/>
	<polygon fill="#BBBBBB" points="123,119.887 132.66,142.871 162,134.184 	"/>
	<polygon fill="#AEAEAE" points="132.805,104.407 123,119.887 162,134.184 	"/>
	<polygon fill="#DCDCDC" points="156,164.887 164.895,198.223 171,167.887 	"/>
	<polygon fill="#181818" points="162.398,298.899 150.863,303.516 184.012,310.743 	"/>
	<polygon fill="#606060" points="148.062,63.699 154.707,79.344 162.965,51.957 	"/>
	<polygon fill="#BBBBBB" points="168.992,216.946 180.727,224.965 182.812,211.551 	"/>
	<polygon fill="#2F2F2F" points="152,39.887 155.543,50.699 162.918,48.176 	"/>
	<polygon fill="#C3C3C3" points="163,218.887 170.629,235.922 173.637,231.95 	"/>
	<polygon fill="#313131" points="152.734,55.578 148.062,63.699 162.965,51.957 	"/>
	<polygon fill="#C2C2C2" points="139.773,191.379 141.352,227.899 163,218.887 	"/>
	<polygon fill="#CECECE" points="141.352,227.899 149.617,239.735 163,218.887 	"/>
	<polygon fill="#CCCCCC" points="168.738,218.817 163,218.887 173.637,231.95 	"/>
	<polygon fill="#333333" points="161.609,394.329 162.879,396.243 173.422,384.793 	"/>
	<polygon fill="#686868" points="149.617,239.735 160.109,263.461 174.621,242.653 	"/>
	<polygon fill="#D3D3D3" points="163,218.887 168.738,218.817 168.992,216.946 	"/>
	<polygon fill="#B1B1B1" points="164.895,198.223 163,218.887 168.992,216.946 	"/>
	<polygon fill="#D1D1D1" points="163,218.887 149.617,239.735 170.629,235.922 	"/>
	<polygon fill="#191919" points="164.66,295.208 162.398,298.899 171.215,298.774 	"/>
	<polygon fill="#1A1A1A" points="228.715,374.649 237.871,387.079 241.598,384.395 	"/>
	<polygon fill="#9F9F9F" points="192.469,220.106 192.492,229.024 193.789,229.833 	"/>
	<polygon fill="#C4C4C4" points="182.812,211.551 180.727,224.965 183.148,223.887 	"/>
	<polygon fill="#A4A4A4" points="146.305,380.774 147.293,383.059 173.422,384.793 	"/>
	<polygon fill="#4E4E4E" points="147.293,383.059 161.609,394.329 173.422,384.793 	"/>
	<polygon fill="#D3D3D3" points="171,167.887 164.895,198.223 186,193.887 	"/>
	<polygon fill="#B2B2B2" points="152.703,82.543 176,112.887 188,83.887 	"/>
	<polygon fill="#CDCDCD" points="173.637,231.95 170.629,235.922 174.621,242.653 	"/>
	<polygon fill="#4C4C4C" points="154.707,79.344 152.703,82.543 188,83.887 	"/>
	<polygon fill="#C9C9C9" points="164.895,198.223 168.992,216.946 182.812,211.551 	"/>
	<polygon fill="#C9C9C9" points="194.457,208.157 186.652,213.094 195.465,216.231 	"/>
	<polygon fill="#DADADA" points="185.043,209.954 182.812,211.551 186.652,213.094 	"/>
	<polygon fill="#282828" points="162.918,48.176 162.965,51.957 178.773,52.168 	"/>
	<polygon fill="#D2D2D2" points="149.008,99.961 162,134.184 176,112.887 	"/>
	<polygon fill="#424242" points="152.703,82.543 149.008,99.961 176,112.887 	"/>
	<polygon fill="#E1E1E1" points="186.652,213.094 192.469,220.106 195.465,216.231 	"/>
	<polygon fill="#D7D7D7" points="156,164.887 171,167.887 179.133,157.825 	"/>
	<polygon fill="#E1E1E1" points="162,134.184 156,164.887 179.133,157.825 	"/>
	<polygon fill="#4F4F4F" points="162.918,48.176 178.773,52.168 184.641,33.207 	"/>
	<polygon fill="#1D1D1D" points="173.945,21.075 159.23,27.043 184.641,33.207 	"/>
	<polygon fill="#CCCCCC" points="168.992,216.946 168.738,218.817 180.727,224.965 	"/>
	<polygon fill="#C4C4C4" points="168.738,218.817 173.637,231.95 180.727,224.965 	"/>
	<polygon fill="#BDBDBD" points="183.148,223.887 180.727,224.965 188.41,229.149 	"/>
	<polygon fill="#505050" points="240.547,168.18 252.93,173.844 253.352,171.282 	"/>
	<polygon fill="#C2C2C2" points="183.664,306.348 171.215,298.774 184.012,310.743 	"/>
	<polygon fill="#1A1A1A" points="171.215,298.774 162.398,298.899 184.012,310.743 	"/>
	<polygon fill="#202020" points="160.109,263.461 164.66,295.208 183.141,284.868 	"/>
	<polygon fill="#242424" points="164.66,295.208 171.215,298.774 183.141,284.868 	"/>
	<polygon fill="#3A3A3A" points="185.27,5.141 197.812,21.84 198.902,1.707 	"/>
	<polygon fill="#393939" points="159.23,27.043 162.918,48.176 184.641,33.207 	"/>
	<polygon fill="#C7C7C7" points="150.863,303.516 137.395,325.668 184.012,310.743 	"/>
	<polygon fill="#DDDDDD" points="162,134.184 179.133,157.825 184,131.887 	"/>
	<polygon fill="#DFDFDF" points="176,112.887 162,134.184 184,131.887 	"/>
	<polygon fill="#A5A5A5" points="182.812,211.551 183.148,223.887 186.652,213.094 	"/>
	<polygon fill="#B9B9B9" points="173.637,231.95 174.621,242.653 184.371,233.469 	"/>
	<polygon fill="#A2A2A2" points="180.727,224.965 173.637,231.95 184.371,233.469 	"/>
	<polygon fill="#242424" points="186.707,286.137 183.141,284.868 191.074,295.43 	"/>
	<polygon fill="#3A3A3A" points="183.141,284.868 171.215,298.774 191.074,295.43 	"/>
	<polygon fill="#898989" points="191.074,295.43 183.664,306.348 200.266,307.012 	"/>
	<polygon fill="#DCDCDC" points="194.457,208.157 195.465,216.231 199.43,212.278 	"/>
	<polygon fill="#BEBEBE" points="137.395,325.668 146.305,380.774 185.047,372.993 	"/>
	<polygon fill="#646464" points="146.305,380.774 173.422,384.793 185.047,372.993 	"/>
	<polygon fill="#5C5C5C" points="184.641,33.207 178.773,52.168 193.992,33.524 	"/>
	<polygon fill="#434343" points="255.055,20.016 260.773,25.676 269.328,18.071 	"/>
	<polygon fill="#DADADA" points="171,167.887 186,193.887 190,179.887 	"/>
	<polygon fill="#5E5E5E" points="234.059,2.653 228.254,9.614 234.113,14.289 	"/>
	<polygon fill="#DFDFDF" points="179.133,157.825 171,167.887 190,179.887 	"/>
	<polygon fill="#DBDBDB" points="203.844,189.699 212.684,194.649 218.469,182.207 	"/>
	<polygon fill="#6D6D6D" points="178.773,52.168 154.707,79.344 188,83.887 	"/>
	<polygon fill="#1C1C1C" points="210.605,292.504 200.844,295.336 212.645,302.997 	"/>
	<polygon fill="#818181" points="209.906,326.661 193.949,343.11 211.863,333.567 	"/>
	<polygon fill="#575757" points="185.047,372.993 197.945,381.891 199.68,380.576 	"/>
	<polygon fill="#848484" points="197.469,365.743 185.047,372.993 199.68,380.576 	"/>
	<polygon fill="#C3C3C3" points="171.215,298.774 183.664,306.348 191.074,295.43 	"/>
	<polygon fill="#6A6A6A" points="211.883,356.329 197.469,365.743 215.105,381.52 	"/>
	<polygon fill="#838383" points="185.047,372.993 173.422,384.793 191.762,382.954 	"/>
	<polygon fill="#A8A8A8" points="192.492,229.024 188.41,229.149 193.789,229.833 	"/>
	<polygon fill="#8C8C8C" points="188.41,229.149 184.371,233.469 193.789,229.833 	"/>
	<polygon fill="#2F2F2F" points="184.641,33.207 193.992,33.524 197.812,21.84 	"/>
	<polygon fill="#3F3F3F" points="186.652,213.094 183.148,223.887 192.469,220.106 	"/>
	<polygon fill="#C7C7C7" points="183.148,223.887 188.41,229.149 192.469,220.106 	"/>
	<polygon fill="#C3C3C3" points="192.469,220.106 188.41,229.149 192.492,229.024 	"/>
	<polygon fill="#919191" points="193.949,343.11 185.047,372.993 197.469,365.743 	"/>
	<polygon fill="#CBCBCB" points="183.664,306.348 184.012,310.743 200.266,307.012 	"/>
	<polygon fill="#CDCDCD" points="184.012,310.743 137.395,325.668 193.949,343.11 	"/>
	<polygon fill="#BEBEBE" points="137.395,325.668 185.047,372.993 193.949,343.11 	"/>
	<polygon fill="#303030" points="207.102,228.188 193.789,229.833 208.18,229.649 	"/>
	<polygon fill="#E7E7E7" points="186,193.887 185.043,209.954 194.457,208.157 	"/>
	<polygon fill="#D5D5D5" points="185.043,209.954 186.652,213.094 194.457,208.157 	"/>
	<polygon fill="#1A1A1A" points="160.109,263.461 183.141,284.868 196.023,257.637 	"/>
	<polygon fill="#A7A7A7" points="184.371,233.469 174.621,242.653 196.023,257.637 	"/>
	<polygon fill="#222222" points="200.844,295.336 200.266,307.012 212.645,302.997 	"/>
	<polygon fill="#D0D0D0" points="203.641,218.161 203.539,221.446 204.148,219.594 	"/>
	<polygon fill="#1A1A1A" points="183.141,284.868 186.707,286.137 196.023,257.637 	"/>
	<polygon fill="#7A7A7A" points="174.621,242.653 160.109,263.461 196.023,257.637 	"/>
	<polygon fill="#595959" points="173.945,21.075 184.641,33.207 197.812,21.84 	"/>
	<polygon fill="#696969" points="185.27,5.141 173.945,21.075 197.812,21.84 	"/>
	<polygon fill="#565656" points="185.047,372.993 191.762,382.954 197.945,381.891 	"/>
	<polygon fill="#C1C1C1" points="203.641,218.161 204.148,219.594 214.977,213.504 	"/>
	<polygon fill="#5E5E5E" points="184.371,233.469 196.023,257.637 201.855,242.313 	"/>
	<polygon fill="#191919" points="191.762,382.954 192.406,384.672 197.945,381.891 	"/>
	<polygon fill="#747474" points="200.266,307.012 203.605,315 212.645,302.997 	"/>
	<polygon fill="#D9D9D9" points="188,83.887 176,112.887 199.223,106.004 	"/>
	<polygon fill="#A1A1A1" points="202.352,355.125 201.914,357.043 211.883,356.329 	"/>
	<polygon fill="#DEDEDE" points="176,112.887 184,131.887 199.223,106.004 	"/>
	<polygon fill="#777777" points="193.789,229.833 201.855,242.313 208.18,229.649 	"/>
	<polygon fill="#3F3F3F" points="201.855,242.313 202.852,244.293 208.18,229.649 	"/>
	<polygon fill="#616161" points="193.789,229.833 184.371,233.469 201.855,242.313 	"/>
	<polygon fill="#B5B5B5" points="200.266,307.012 184.012,310.743 203.605,315 	"/>
	<polygon fill="#DADADA" points="194.457,208.157 199.43,212.278 200.543,206.688 	"/>
	<polygon fill="#979797" points="193.949,343.11 197.469,365.743 201.914,357.043 	"/>
	<polygon fill="#B5B5B5" points="193.949,343.11 202.766,346.747 211.863,333.567 	"/>
	<polygon fill="#DEDEDE" points="200.543,206.688 199.43,212.278 202.02,205.188 	"/>
	<polygon fill="#272727" points="186.707,286.137 191.074,295.43 200.844,295.336 	"/>
	<polygon fill="#181818" points="197.469,365.743 199.68,380.576 215.105,381.52 	"/>
	<polygon fill="#626262" points="191.074,295.43 200.266,307.012 200.844,295.336 	"/>
	<polygon fill="#BCBCBC" points="186,193.887 202.02,205.188 203.844,189.699 	"/>
	<polygon fill="#C6C6C6" points="193.949,343.11 202.352,355.125 202.766,346.747 	"/>
	<polygon fill="#909090" points="202.941,146.043 204.848,155.481 205.895,148.141 	"/>
	<polygon fill="#CBCBCB" points="195.465,216.231 203.539,221.446 203.641,218.161 	"/>
	<polygon fill="#ABABAB" points="190,179.887 186,193.887 203.844,189.699 	"/>
	<polygon fill="#DCDCDC" points="199.223,106.004 184,131.887 202.941,146.043 	"/>
	<polygon fill="#E4E4E4" points="186,193.887 194.457,208.157 202.02,205.188 	"/>
	<polygon fill="#E2E2E2" points="194.457,208.157 200.543,206.688 202.02,205.188 	"/>
	<polygon fill="#DEDEDE" points="209,177.887 203.844,189.699 218.469,182.207 	"/>
	<polygon fill="#8D8D8D" points="193.949,343.11 201.914,357.043 202.352,355.125 	"/>
	<polygon fill="#8E8E8E" points="205.789,55.051 222.645,61.02 222.723,53.297 	"/>
	<polygon fill="#161616" points="201.855,242.313 196.023,257.637 202.852,244.293 	"/>
	<polygon fill="#171717" points="211.477,285.493 200.844,295.336 211.488,289.958 	"/>
	<polygon fill="#C4C4C4" points="184,131.887 179.133,157.825 202.941,146.043 	"/>
	<polygon fill="#AFAFAF" points="184.012,310.743 193.949,343.11 203.605,315 	"/>
	<polygon fill="#636363" points="193.992,33.524 205.789,55.051 210.492,36.157 	"/>
	<polygon fill="#696969" points="192.469,220.106 193.789,229.833 203.539,221.446 	"/>
	<polygon fill="#DADADA" points="195.465,216.231 192.469,220.106 203.539,221.446 	"/>
	<polygon fill="#3A3A3A" points="211.574,0.703 198.902,1.707 213.949,12.813 	"/>
	<polygon fill="#474747" points="198.902,1.707 197.812,21.84 213.949,12.813 	"/>
	<polygon fill="#525252" points="228.254,9.614 213.949,12.813 229.68,22.762 	"/>
	<polygon fill="#DFDFDF" points="202.02,205.188 199.43,212.278 203.641,218.161 	"/>
	<polygon fill="#CCCCCC" points="199.43,212.278 195.465,216.231 203.641,218.161 	"/>
	<polygon fill="#767676" points="178.773,52.168 204.699,69.774 205.789,55.051 	"/>
	<polygon fill="#858585" points="178.773,52.168 188,83.887 204.699,69.774 	"/>
	<polygon fill="#787878" points="193.992,33.524 178.773,52.168 205.789,55.051 	"/>
	<polygon fill="#D0D0D0" points="202.941,146.043 179.133,157.825 204.848,155.481 	"/>
	<polygon fill="#C5C5C5" points="179.133,157.825 190,179.887 204.848,155.481 	"/>
	<polygon fill="#A6A6A6" points="188,83.887 199.223,106.004 204.699,69.774 	"/>
	<polygon fill="#B9B9B9" points="211.863,333.567 202.766,346.747 214.344,341.598 	"/>
	<polygon fill="#B0B0B0" points="214.344,341.598 225.945,344.684 226.633,340.942 	"/>
	<polygon fill="#DFDFDF" points="204.148,219.594 203.539,221.446 207.102,228.188 	"/>
	<polygon fill="#A0A0A0" points="212.645,302.997 222.062,308.622 224.148,296.77 	"/>
	<polygon fill="#6A6A6A" points="197.812,21.84 193.992,33.524 210.492,36.157 	"/>
	<polygon fill="#C5C5C5" points="203.605,315 193.949,343.11 209.906,326.661 	"/>
	<polygon fill="#9D9D9D" points="212.684,194.649 202.02,205.188 214.977,213.504 	"/>
	<polygon fill="#D4D4D4" points="190,179.887 203.844,189.699 209,177.887 	"/>
	<polygon fill="#E8E8E8" points="204.848,155.481 190,179.887 209,177.887 	"/>
	<polygon fill="#111111" points="214.344,341.598 202.766,346.747 215.988,352.977 	"/>
	<polygon fill="#CECECE" points="216.836,323.321 209.906,326.661 218.875,326.637 	"/>
	<polygon fill="#1B1B1B" points="211.477,285.493 211.488,289.958 224.148,296.77 	"/>
	<polygon fill="#BBBBBB" points="204.848,155.481 214.152,164.696 215.43,162.629 	"/>
	<polygon fill="#6F6F6F" points="202.766,346.747 202.352,355.125 211.883,356.329 	"/>
	<polygon fill="#747474" points="201.914,357.043 197.469,365.743 211.883,356.329 	"/>
	<polygon fill="#464646" points="196.023,257.637 186.707,286.137 211.477,285.493 	"/>
	<polygon fill="#353535" points="228.254,9.614 229.68,22.762 234.113,14.289 	"/>
	<polygon fill="#1A1A1A" points="186.707,286.137 200.844,295.336 211.477,285.493 	"/>
	<polygon fill="#747474" points="205.895,148.141 204.848,155.481 215.43,162.629 	"/>
	<polygon fill="#1A1A1A" points="202.852,244.293 196.023,257.637 211.477,285.493 	"/>
	<polygon fill="#1A1A1A" points="200.844,295.336 210.605,292.504 211.488,289.958 	"/>
	<polygon fill="#AAAAAA" points="202.02,205.188 203.641,218.161 214.977,213.504 	"/>
	<polygon fill="#C4C4C4" points="202.766,346.747 211.883,356.329 215.988,352.977 	"/>
	<polygon fill="#CBCBCB" points="209.906,326.661 211.863,333.567 218.875,326.637 	"/>
	<polygon fill="#353535" points="228.715,374.649 217.062,382.985 237.871,387.079 	"/>
	<polygon fill="#6A6A6A" points="229.68,22.762 219.887,36.985 231.082,33.758 	"/>
	<polygon fill="#1A1A1A" points="117.93,409.993 0,439.887 250,439.887 	"/>
	<polygon fill="#242424" points="230.293,355.247 223.77,362.118 237.195,368.254 	"/>
	<polygon fill="#3B3B3B" points="197.812,21.84 210.492,36.157 213.949,12.813 	"/>
	<polygon fill="#DBDBDB" points="203.844,189.699 202.02,205.188 212.684,194.649 	"/>
	<polygon fill="#0C0C0C" points="225.875,330.326 214.344,341.598 226.633,340.942 	"/>
	<polygon fill="#D2D2D2" points="204.848,155.481 209,177.887 214.152,164.696 	"/>
	<polygon fill="#4B4B4B" points="235.262,66.5 219.566,66.485 235.707,69.051 	"/>
	<polygon fill="#5B5B5B" points="214.977,213.504 207.102,228.188 219.773,214.805 	"/>
	<polygon fill="#A2A2A2" points="204.148,219.594 207.102,228.188 214.977,213.504 	"/>
	<polygon fill="#A7A7A7" points="203.605,315 216.836,323.321 222.062,308.622 	"/>
	<polygon fill="#1C1C1C" points="199.68,380.576 197.945,381.891 215.105,381.52 	"/>
	<polygon fill="#2F2F2F" points="215.105,381.52 197.945,381.891 217.062,382.985 	"/>
	<polygon fill="#161616" points="197.945,381.891 192.406,384.672 217.062,382.985 	"/>
	<polygon fill="#D4D4D4" points="199.223,106.004 227.867,131.27 229.934,91.539 	"/>
	<polygon fill="#717171" points="219.887,36.985 222.723,53.297 224.809,51.203 	"/>
	<polygon fill="#2B2B2B" points="211.574,0.703 213.949,12.813 220.016,5.899 	"/>
	<polygon fill="#E8E8E8" points="214.152,164.696 209,177.887 218.469,182.207 	"/>
	<polygon fill="#9E9E9E" points="203.605,315 209.906,326.661 216.836,323.321 	"/>
	<polygon fill="#E1E1E1" points="230.312,158.047 218.469,182.207 240.113,168.207 	"/>
	<polygon fill="#5C5C5C" points="219.566,66.485 229.934,91.539 235.707,69.051 	"/>
	<polygon fill="#8A8A8A" points="207.102,228.188 208.18,229.649 219.773,214.805 	"/>
	<polygon fill="#AFAFAF" points="212.645,302.997 203.605,315 222.062,308.622 	"/>
	<polygon fill="#B3B3B3" points="214.344,341.598 215.988,352.977 220.715,348.954 	"/>
	<polygon fill="#292929" points="235.918,16.051 229.68,22.762 238.062,25.328 	"/>
	<polygon fill="#404040" points="205.789,55.051 204.699,69.774 219.566,66.485 	"/>
	<polygon fill="#B3B3B3" points="220.715,348.954 215.988,352.977 223.77,362.118 	"/>
	<polygon fill="#636363" points="213.949,12.813 219.887,36.985 229.68,22.762 	"/>
	<polygon fill="#C7C7C7" points="212.684,194.649 214.977,213.504 219.773,214.805 	"/>
	<polygon fill="#939393" points="219.566,66.485 204.699,69.774 229.934,91.539 	"/>
	<polygon fill="#3A3A3A" points="237.195,368.254 228.715,374.649 241.598,384.395 	"/>
	<polygon fill="#B3B3B3" points="204.699,69.774 199.223,106.004 229.934,91.539 	"/>
	<polygon fill="#D1D1D1" points="216.836,323.321 218.875,326.637 226.227,319.239 	"/>
	<polygon fill="#5E5E5E" points="213.949,12.813 210.492,36.157 219.887,36.985 	"/>
	<polygon fill="#595959" points="219.887,36.985 210.492,36.157 222.723,53.297 	"/>
	<polygon fill="#A5A5A5" points="215.988,352.977 211.883,356.329 223.77,362.118 	"/>
	<polygon fill="#111111" points="211.883,356.329 215.105,381.52 223.77,362.118 	"/>
	<polygon fill="#6A6A6A" points="210.492,36.157 205.789,55.051 222.723,53.297 	"/>
	<polygon fill="#BEBEBE" points="226.227,319.239 225.875,330.326 228.004,318.305 	"/>
	<polygon fill="#A4A4A4" points="205.789,55.051 219.566,66.485 222.645,61.02 	"/>
	<polygon fill="#A5A5A5" points="218.875,326.637 225.875,330.326 226.227,319.239 	"/>
	<polygon fill="#7F7F7F" points="210.605,292.504 212.645,302.997 224.148,296.77 	"/>
	<polygon fill="#4A4A4A" points="223.77,362.118 228.715,374.649 237.195,368.254 	"/>
	<polygon fill="#777777" points="229.68,22.762 231.398,34.145 238.062,25.328 	"/>
	<polygon fill="#777777" points="222.723,53.297 222.645,61.02 224.809,51.203 	"/>
	<polygon fill="#1A1A1A" points="211.488,289.958 210.605,292.504 224.148,296.77 	"/>
	<polygon fill="#686868" points="229.496,211.247 234,221.887 239.164,207.594 	"/>
	<polygon fill="#CFCFCF" points="222.062,308.622 216.836,323.321 226.227,319.239 	"/>
	<polygon fill="#BEBEBE" points="214.344,341.598 220.715,348.954 225.945,344.684 	"/>
	<polygon fill="#A3A3A3" points="211.863,333.567 214.344,341.598 225.875,330.326 	"/>
	<polygon fill="#C3C3C3" points="218.875,326.637 211.863,333.567 225.875,330.326 	"/>
	<polygon fill="#535353" points="245.793,31.762 250.648,33.043 255.055,20.016 	"/>
	<polygon fill="#BABABA" points="225.945,344.684 220.715,348.954 230.293,355.247 	"/>
	<polygon fill="#E6E6E6" points="199.223,106.004 202.941,146.043 227.867,131.27 	"/>
	<polygon fill="#484848" points="202.941,146.043 205.895,148.141 227.867,131.27 	"/>
	<polygon fill="#838383" points="229.68,22.762 231.082,33.758 231.398,34.145 	"/>
	<polygon fill="#191919" points="208.18,229.649 230.551,237.872 231.258,235.821 	"/>
	<polygon fill="#2C2C2C" points="220.016,5.899 213.949,12.813 228.254,9.614 	"/>
	<polygon fill="#1B1B1B" points="223.77,362.118 215.105,381.52 228.715,374.649 	"/>
	<polygon fill="#909090" points="244.695,180.473 218.469,182.207 244.754,190.133 	"/>
	<polygon fill="#222222" points="215.105,381.52 217.062,382.985 228.715,374.649 	"/>
	<polygon fill="#121212" points="240.547,168.18 240.113,168.207 244.695,180.473 	"/>
	<polygon fill="#CDCDCD" points="230.5,137.223 230.312,158.047 238.562,145.696 	"/>
	<polygon fill="#D4D4D4" points="212.684,194.649 219.773,214.805 229.496,211.247 	"/>
	<polygon fill="#141414" points="220.715,348.954 223.77,362.118 230.293,355.247 	"/>
	<polygon fill="#575757" points="205.895,148.141 230.312,158.047 230.5,137.223 	"/>
	<polygon fill="#BFBFBF" points="230.398,303.106 234.371,310.833 234.625,306.758 	"/>
	<polygon fill="#4D4D4D" points="234.336,296.954 230.398,303.106 234.625,306.758 	"/>
	<polygon fill="#6D6D6D" points="205.895,148.141 215.43,162.629 230.312,158.047 	"/>
	<polygon fill="#C1C1C1" points="222.062,308.622 226.227,319.239 230.125,316.04 	"/>
	<polygon fill="#C4C4C4" points="226.227,319.239 228.004,318.305 230.125,316.04 	"/>
	<polygon fill="#D0D0D0" points="215.43,162.629 214.152,164.696 230.312,158.047 	"/>
	<polygon fill="#DEDEDE" points="214.152,164.696 218.469,182.207 230.312,158.047 	"/>
	<polygon fill="#DADADA" points="227.867,131.27 205.895,148.141 230.5,137.223 	"/>
	<polygon fill="#969696" points="212.684,194.649 229.496,211.247 239.723,198.762 	"/>
	<polygon fill="#474747" points="211.574,0.703 220.016,5.899 234.059,2.653 	"/>
	<polygon fill="#949494" points="224.148,296.77 222.062,308.622 230.398,303.106 	"/>
	<polygon fill="#212121" points="202.852,244.293 211.477,285.493 230.551,237.872 	"/>
	<polygon fill="#8E8E8E" points="218.469,182.207 239.723,198.762 244.754,190.133 	"/>
	<polygon fill="#3F3F3F" points="230.398,303.106 222.062,308.622 234.371,310.833 	"/>
	<polygon fill="#141414" points="208.18,229.649 202.852,244.293 230.551,237.872 	"/>
	<polygon fill="#D2D2D2" points="219.773,214.805 231.965,233.993 234,221.887 	"/>
	<polygon fill="#949494" points="231.082,33.758 219.887,36.985 231.398,34.145 	"/>
	<polygon fill="#373737" points="219.887,36.985 224.809,51.203 231.398,34.145 	"/>
	<polygon fill="#9E9E9E" points="229.496,211.247 239.164,207.594 239.723,198.762 	"/>
	<polygon fill="#535353" points="219.773,214.805 208.18,229.649 231.965,233.993 	"/>
	<polygon fill="#171717" points="208.18,229.649 231.258,235.821 231.965,233.993 	"/>
	<polygon fill="#6C6C6C" points="229.496,211.247 219.773,214.805 234,221.887 	"/>
	<polygon fill="#454545" points="220.016,5.899 228.254,9.614 234.059,2.653 	"/>
	<polygon fill="#1A1A1A" points="249.836,425.918 192.406,384.672 250,439.887 	"/>
	<polygon fill="#525252" points="254.277,16.235 238.062,25.328 255.055,20.016 	"/>
	<polygon fill="#8F8F8F" points="224.148,296.77 230.398,303.106 234.336,296.954 	"/>
	<polygon fill="#1A1A1A" points="192.406,384.672 162.879,396.243 250,439.887 	"/>
	<polygon fill="#363636" points="234.113,14.289 229.68,22.762 235.918,16.051 	"/>
	<polygon fill="#191919" points="247.609,116.754 252.902,111 254.191,100.547 	"/>
	<polygon fill="#BCBCBC" points="222.062,308.622 230.125,316.04 234.371,310.833 	"/>
	<polygon fill="#787878" points="224.809,51.203 222.645,61.02 235.262,66.5 	"/>
	<polygon fill="#1A1A1A" points="241.598,384.395 244.004,386.25 245.582,373.407 	"/>
	<polygon fill="#1A1A1A" points="237.195,368.254 241.598,384.395 245.582,373.407 	"/>
	<polygon fill="#808080" points="222.645,61.02 219.566,66.485 235.262,66.5 	"/>
	<polygon fill="#C1C1C1" points="225.875,330.326 226.633,340.942 236.277,342.949 	"/>
	<polygon fill="#9D9D9D" points="225.945,344.684 230.293,355.247 236.277,342.949 	"/>
	<polygon fill="#EDEDED" points="218.469,182.207 212.684,194.649 239.723,198.762 	"/>
	<polygon fill="#1F1F1F" points="246.133,291.833 244.07,301.516 248.914,291.782 	"/>
	<polygon fill="#C9C9C9" points="226.633,340.942 225.945,344.684 236.277,342.949 	"/>
	<polygon fill="#6F6F6F" points="235.707,69.051 229.934,91.539 249.809,86.969 	"/>
	<polygon fill="#3A3A3A" points="257.148,179.039 263,186.887 268,184.887 	"/>
	<polygon fill="#9F9F9F" points="242.52,302.895 234.625,306.758 246.004,312.403 	"/>
	<polygon fill="#B4B4B4" points="230.125,316.04 228.004,318.305 239.648,323.449 	"/>
	<polygon fill="#1C1C1C" points="241.598,384.395 237.871,387.079 244.004,386.25 	"/>
	<polygon fill="#909090" points="230.312,158.047 240.113,168.207 240.547,168.18 	"/>
	<polygon fill="#B5B5B5" points="234.371,310.833 230.125,316.04 239.648,323.449 	"/>
	<polygon fill="#C0C0C0" points="225.875,330.326 236.277,342.949 239.648,323.449 	"/>
	<polygon fill="#A0A0A0" points="228.004,318.305 225.875,330.326 239.648,323.449 	"/>
	<polygon fill="#7A7A7A" points="238.562,145.696 230.312,158.047 240.547,168.18 	"/>
	<polygon fill="#868686" points="229.934,91.539 247.609,116.754 254.191,100.547 	"/>
	<polygon fill="#1C1C1C" points="230.551,237.872 211.477,285.493 240.461,282.477 	"/>
	<polygon fill="#696969" points="211.477,285.493 224.148,296.77 240.461,282.477 	"/>
	<polygon fill="#898989" points="224.148,296.77 234.336,296.954 240.461,282.477 	"/>
	<polygon fill="#A9A9A9" points="234.336,296.954 234.625,306.758 242.52,302.895 	"/>
	<polygon fill="#999999" points="234.336,296.954 242.52,302.895 244.07,301.516 	"/>
	<polygon fill="#A7A7A7" points="239.723,198.762 239.164,207.594 246.129,201.895 	"/>
	<polygon fill="#1A1A1A" points="236.277,342.949 230.293,355.247 240.625,352.067 	"/>
	<polygon fill="#343434" points="230.293,355.247 237.195,368.254 241.145,358.743 	"/>
	<polygon fill="#191919" points="240.625,352.067 230.293,355.247 241.145,358.743 	"/>
	<polygon fill="#555555" points="249.809,86.969 229.934,91.539 254.191,100.547 	"/>
	<polygon fill="#313131" points="236.277,342.949 240.625,352.067 245.859,337.692 	"/>
	<polygon fill="#1B1B1B" points="248.121,323.528 245.859,337.692 255.152,318.797 	"/>
	<polygon fill="#939393" points="239.648,323.449 236.277,342.949 245.859,337.692 	"/>
	<polygon fill="#818181" points="240.461,282.477 248.914,291.782 250.746,274.59 	"/>
	<polygon fill="#1A1A1A" points="246.004,312.403 239.648,323.449 248.121,323.528 	"/>
	<polygon fill="#606060" points="238.062,25.328 245.793,31.762 255.055,20.016 	"/>
	<polygon fill="#8F8F8F" points="254.875,311.196 246.004,312.403 255.152,318.797 	"/>
	<polygon fill="#828282" points="246.004,312.403 248.121,323.528 255.152,318.797 	"/>
	<polygon fill="#AAAAAA" points="234.625,306.758 234.371,310.833 246.004,312.403 	"/>
	<polygon fill="#646464" points="240.113,168.207 218.469,182.207 244.695,180.473 	"/>
	<polygon fill="#1B1B1B" points="237.871,387.079 250.879,421.731 254.023,389.43 	"/>
	<polygon fill="#818181" points="234.371,310.833 239.648,323.449 246.004,312.403 	"/>
	<polygon fill="#1D1D1D" points="230.551,237.872 240.461,282.477 247.262,274.536 	"/>
	<polygon fill="#737373" points="240.461,282.477 246.133,291.833 248.914,291.782 	"/>
	<polygon fill="#313131" points="252.66,49.688 235.262,66.5 257.016,70.985 	"/>
	<polygon fill="#414141" points="238.062,25.328 231.398,34.145 245.793,31.762 	"/>
	<polygon fill="#1B1B1B" points="261.426,375.243 262.156,384.04 264.098,384.076 	"/>
	<polygon fill="#A8A8A8" points="244.07,301.516 242.52,302.895 246.004,312.403 	"/>
	<polygon fill="#686868" points="240.461,282.477 234.336,296.954 246.133,291.833 	"/>
	<polygon fill="#1F1F1F" points="237.871,387.079 254.023,389.43 254.094,381.614 	"/>
	<polygon fill="#696969" points="234.336,296.954 244.07,301.516 246.133,291.833 	"/>
	<polygon fill="#BBBBBB" points="227.867,131.27 230.5,137.223 247.609,116.754 	"/>
	<polygon fill="#AFAFAF" points="230.5,137.223 238.562,145.696 247.609,116.754 	"/>
	<polygon fill="#696969" points="229.934,91.539 227.867,131.27 247.609,116.754 	"/>
	<polygon fill="#9C9C9C" points="234.059,2.653 234.113,14.289 249.023,6.004 	"/>
	<polygon fill="#797979" points="239.648,323.449 245.859,337.692 248.121,323.528 	"/>
	<polygon fill="#727272" points="250.648,33.043 257.707,36.325 260.773,25.676 	"/>
	<polygon fill="#404040" points="235.262,66.5 235.707,69.051 257.016,70.985 	"/>
	<polygon fill="#5D5D5D" points="234.113,14.289 235.918,16.051 249.023,6.004 	"/>
	<polygon fill="#676767" points="254.277,16.235 255.055,20.016 269.328,18.071 	"/>
	<polygon fill="#1C1C1C" points="217.062,382.985 192.406,384.672 249.836,425.918 	"/>
	<polygon fill="#0A0A0A" points="247.262,274.536 240.461,282.477 250.746,274.59 	"/>
	<polygon fill="#242424" points="264.098,384.076 264.852,396.778 266.531,384.86 	"/>
	<polygon fill="#1C1C1C" points="217.062,382.985 249.836,425.918 250.879,421.731 	"/>
	<polygon fill="#191919" points="264.75,372.008 261.426,375.243 266.531,384.86 	"/>
	<polygon fill="#1A1A1A" points="241.145,358.743 237.195,368.254 250.23,365.606 	"/>
	<polygon fill="#1A1A1A" points="237.195,368.254 245.582,373.407 250.23,365.606 	"/>
	<polygon fill="#1F1F1F" points="252.93,173.844 244.695,180.473 257.148,179.039 	"/>
	<polygon fill="#1C1C1C" points="245.582,373.407 244.004,386.25 254.094,381.614 	"/>
	<polygon fill="#1A1A1A" points="255.082,238.133 247.262,274.536 263.852,261.973 	"/>
	<polygon fill="#656565" points="252.508,44.789 224.809,51.203 252.66,49.688 	"/>
	<polygon fill="#7A7A7A" points="244.695,180.473 244.754,190.133 257.148,179.039 	"/>
	<polygon fill="#1A1A1A" points="237.871,387.079 217.062,382.985 250.879,421.731 	"/>
	<polygon fill="#1D1D1D" points="247.262,274.536 250.746,274.59 263.852,261.973 	"/>
	<polygon fill="#898989" points="250.648,33.043 245.793,31.762 252.508,44.789 	"/>
	<polygon fill="#404040" points="245.793,31.762 231.398,34.145 252.508,44.789 	"/>
	<polygon fill="#565656" points="231.398,34.145 224.809,51.203 252.508,44.789 	"/>
	<polygon fill="#151515" points="253.352,171.282 252.93,173.844 254.992,172.024 	"/>
	<polygon fill="#4C4C4C" points="254.09,151.461 253.352,171.282 254.992,172.024 	"/>
	<polygon fill="#1C1C1C" points="241.145,358.743 250.23,365.606 256.883,353.942 	"/>
	<polygon fill="#757575" points="224.809,51.203 235.262,66.5 252.66,49.688 	"/>
	<polygon fill="#737373" points="249.023,6.004 235.918,16.051 254.277,16.235 	"/>
	<polygon fill="#1A1A1A" points="261.426,375.243 264.098,384.076 266.531,384.86 	"/>
	<polygon fill="#6B6B6B" points="275.52,302.211 283.844,318.547 285.152,317.86 	"/>
	<polygon fill="#303030" points="235.707,69.051 249.809,86.969 257.016,70.985 	"/>
	<polygon fill="#818181" points="244.754,190.133 260.98,197.555 263,186.887 	"/>
	<polygon fill="#696969" points="257.148,179.039 244.754,190.133 263,186.887 	"/>
	<polygon fill="#999999" points="240.547,168.18 244.695,180.473 252.93,173.844 	"/>
	<polygon fill="#6B6B6B" points="257.707,36.325 252.508,44.789 259.188,38.356 	"/>
	<polygon fill="#1A1A1A" points="240.625,352.067 241.145,358.743 256.883,353.942 	"/>
	<polygon fill="#646464" points="254.191,100.547 252.902,111 255.438,100.223 	"/>
	<polygon fill="#5D5D5D" points="240.547,168.18 253.352,171.282 254.09,151.461 	"/>
	<polygon fill="#BDBDBD" points="238.562,145.696 240.547,168.18 254.09,151.461 	"/>
	<polygon fill="#616161" points="255.055,20.016 250.648,33.043 260.773,25.676 	"/>
	<polygon fill="#FEFEFE" points="252.484,4.481 249.023,6.004 254.277,16.235 	"/>
	<polygon fill="#868686" points="235.918,16.051 238.062,25.328 254.277,16.235 	"/>
	<polygon fill="#1C1C1C" points="230.551,237.872 247.262,274.536 255.082,238.133 	"/>
	<polygon fill="#0D0D0D" points="244.07,301.516 246.004,312.403 254.875,311.196 	"/>
	<polygon fill="#8D8D8D" points="248.914,291.782 244.07,301.516 254.875,311.196 	"/>
	<polygon fill="#5A5A5A" points="272.316,83.586 259.105,93.836 273.922,86.672 	"/>
	<polygon fill="#929292" points="252.484,4.481 254.277,16.235 269.328,18.071 	"/>
	<polygon fill="#1C1C1C" points="231.965,233.993 231.258,235.821 255.082,238.133 	"/>
	<polygon fill="#1A1A1A" points="276.262,399.949 271.613,397.766 278.227,408.489 	"/>
	<polygon fill="#1C1C1C" points="231.258,235.821 230.551,237.872 255.082,238.133 	"/>
	<polygon fill="#1D1D1D" points="289.5,101.391 252.902,111 289.523,145.258 	"/>
	<polygon fill="#6D6D6D" points="250.648,33.043 252.508,44.789 257.707,36.325 	"/>
	<polygon fill="#0A0A0A" points="254.992,172.024 252.93,173.844 257.148,179.039 	"/>
	<polygon fill="#7B7B7B" points="270.191,300.942 264.496,311.954 272.496,302.188 	"/>
	<polygon fill="#1C1C1C" points="245.859,337.692 240.625,352.067 256.883,353.942 	"/>
	<polygon fill="#878787" points="244.754,190.133 246.129,201.895 260.98,197.555 	"/>
	<polygon fill="#191919" points="261.426,375.243 254.094,381.614 262.156,384.04 	"/>
	<polygon fill="#757575" points="254.191,100.547 255.438,100.223 259.105,93.836 	"/>
	<polygon fill="#202020" points="292.176,366.68 293.719,379.797 296.863,373.872 	"/>
	<polygon fill="#929292" points="254.09,151.461 271.387,167.297 271.664,156.133 	"/>
	<polygon fill="#525252" points="252.902,111 247.609,116.754 258.605,148.293 	"/>
	<polygon fill="#B8B8B8" points="238.562,145.696 254.09,151.461 258.605,148.293 	"/>
	<polygon fill="#979797" points="247.609,116.754 238.562,145.696 258.605,148.293 	"/>
	<polygon fill="#414141" points="249.809,86.969 254.191,100.547 259.105,93.836 	"/>
	<polygon fill="#262626" points="252.508,44.789 252.66,49.688 259.188,38.356 	"/>
	<polygon fill="#515151" points="249.809,86.969 259.105,93.836 261.672,74.055 	"/>
	<polygon fill="#333333" points="269.328,18.071 260.773,25.676 270.184,27.852 	"/>
	<polygon fill="#191919" points="250.23,365.606 245.582,373.407 261.426,375.243 	"/>
	<polygon fill="#1A1A1A" points="245.582,373.407 254.094,381.614 261.426,375.243 	"/>
	<polygon fill="#5A5A5A" points="257.016,70.985 249.809,86.969 261.672,74.055 	"/>
	<polygon fill="#505050" points="313.441,64.02 307.207,76.629 315.523,79.125 	"/>
	<polygon fill="#1B1B1B" points="250.23,365.606 261.426,375.243 264.75,372.008 	"/>
	<polygon fill="#FEFEFE" points="255.082,238.133 265.836,232.204 265.879,229.325 	"/>
	<polygon fill="#A8A8A8" points="258.605,148.293 254.09,151.461 271.664,156.133 	"/>
	<polygon fill="#1D1D1D" points="256.883,353.942 250.23,365.606 264.75,372.008 	"/>
	<polygon fill="#1C1C1C" points="276.262,399.949 278.227,408.489 287.684,389.594 	"/>
	<polygon fill="#1E1E1E" points="254.875,311.196 255.152,318.797 264.496,311.954 	"/>
	<polygon fill="#5B5B5B" points="257.016,70.985 261.672,74.055 266.703,61.821 	"/>
	<polygon fill="#1C1C1C" points="264.098,384.076 262.156,384.04 264.852,396.778 	"/>
	<polygon fill="#646464" points="252.66,49.688 257.016,70.985 266.703,61.821 	"/>
	<polygon fill="#474747" points="259.188,38.356 276.648,55.719 279.352,47.481 	"/>
	<polygon fill="#3E3E3E" points="254.875,311.196 264.496,311.954 270.191,300.942 	"/>
	<polygon fill="#1D1D1D" points="255.082,238.133 269.699,242.247 269.863,239.903 	"/>
	<polygon fill="#434343" points="259.188,38.356 252.66,49.688 266.703,61.821 	"/>
	<polygon fill="#3C3C3C" points="248.914,291.782 254.875,311.196 270.191,300.942 	"/>
	<polygon fill="#1B1B1B" points="263.852,261.973 250.746,274.59 270.191,300.942 	"/>
	<polygon fill="#1D1D1D" points="265.836,232.204 255.082,238.133 269.863,239.903 	"/>
	<polygon fill="#555555" points="288.688,46.219 282.91,50.278 294.832,62.532 	"/>
	<polygon fill="#1B1B1B" points="255.082,238.133 263.852,261.973 269.699,242.247 	"/>
	<polygon fill="#232323" points="260.773,25.676 257.707,36.325 270.184,27.852 	"/>
	<polygon fill="#292929" points="271.84,33.739 259.188,38.356 279.352,47.481 	"/>
	<polygon fill="#242424" points="280.438,328.946 256.883,353.942 289.18,358.645 	"/>
	<polygon fill="#1D1D1D" points="270.184,27.852 257.707,36.325 271.84,33.739 	"/>
	<polygon fill="#1B1B1B" points="266.531,384.86 264.852,396.778 278.227,408.489 	"/>
	<polygon fill="#353535" points="250.746,274.59 248.914,291.782 270.191,300.942 	"/>
	<polygon fill="#858585" points="257.707,36.325 259.188,38.356 271.84,33.739 	"/>
	<polygon fill="#171717" points="254.992,172.024 257.148,179.039 271.387,167.297 	"/>
	<polygon fill="#1E1E1E" points="257.148,179.039 268,184.887 271.387,167.297 	"/>
	<polygon fill="#717171" points="254.09,151.461 254.992,172.024 271.387,167.297 	"/>
	<polygon fill="#191919" points="271.84,33.739 279.352,47.481 288.688,46.219 	"/>
	<polygon fill="#242424" points="269.699,242.247 279.902,248.782 284.27,241.696 	"/>
	<polygon fill="#5D5D5D" points="261.672,74.055 259.105,93.836 272.316,83.586 	"/>
	<polygon fill="#282828" points="269.863,239.903 269.699,242.247 284.27,241.696 	"/>
	<polygon fill="#464646" points="279.352,47.481 276.648,55.719 282.91,50.278 	"/>
	<polygon fill="#7F7F7F" points="279.352,47.481 282.91,50.278 288.688,46.219 	"/>
	<polygon fill="#5E5E5E" points="272.496,302.188 264.496,311.954 275.52,302.211 	"/>
	<polygon fill="#1E1E1E" points="263.852,261.973 270.191,300.942 275.52,302.211 	"/>
	<polygon fill="#8E8E8E" points="270.191,300.942 272.496,302.188 275.52,302.211 	"/>
	<polygon fill="#7A7A7A" points="285.152,317.86 283.844,318.547 286.844,321.586 	"/>
	<polygon fill="#616161" points="252.902,111 258.605,148.293 289.523,145.258 	"/>
	<polygon fill="#282828" points="273.922,86.672 283.379,88.43 284.527,75.887 	"/>
	<polygon fill="#505050" points="259.188,38.356 266.703,61.821 276.648,55.719 	"/>
	<polygon fill="#1B1B1B" points="269.699,242.247 263.852,261.973 279.902,248.782 	"/>
	<polygon fill="#232323" points="272.316,83.586 273.922,86.672 284.527,75.887 	"/>
	<polygon fill="#232323" points="256.883,353.942 264.75,372.008 289.18,358.645 	"/>
	<polygon fill="#404040" points="271.387,167.297 278.676,175.645 281.824,157.102 	"/>
	<polygon fill="#7B7B7B" points="271.664,156.133 271.387,167.297 281.824,157.102 	"/>
	<polygon fill="#525252" points="283.844,318.547 280.438,328.946 286.844,321.586 	"/>
	<polygon fill="#262626" points="255.152,318.797 245.859,337.692 280.438,328.946 	"/>
	<polygon fill="#262626" points="245.859,337.692 256.883,353.942 280.438,328.946 	"/>
	<polygon fill="#373737" points="264.496,311.954 255.152,318.797 280.438,328.946 	"/>
	<polygon fill="#343434" points="276.648,55.719 266.703,61.821 284.527,75.887 	"/>
	<polygon fill="#434343" points="266.531,384.86 287.684,389.594 289.66,382.629 	"/>
	<polygon fill="#2A2A2A" points="332.738,282.485 333.637,287.665 338.078,285.852 	"/>
	<polygon fill="#1D1D1D" points="279.902,248.782 263.852,261.973 287.859,253.008 	"/>
	<polygon fill="#767676" points="292.152,252.708 287.859,253.008 296.105,294.442 	"/>
	<polygon fill="#242424" points="281.824,157.102 290.113,164.594 290.832,146.555 	"/>
	<polygon fill="#2D2D2D" points="292.176,366.68 289.66,382.629 293.719,379.797 	"/>
	<polygon fill="#434343" points="292.176,366.68 298.863,366.192 299.781,364.454 	"/>
	<polygon fill="#282828" points="306.996,292.356 308.727,301.985 311.078,302.047 	"/>
	<polygon fill="#333333" points="264.75,372.008 266.531,384.86 289.66,382.629 	"/>
	<polygon fill="#484848" points="296.863,373.872 293.719,379.797 297.148,391.958 	"/>
	<polygon fill="#393939" points="261.672,74.055 272.316,83.586 284.527,75.887 	"/>
	<polygon fill="#4D4D4D" points="266.703,61.821 261.672,74.055 284.527,75.887 	"/>
	<polygon fill="#161616" points="264.496,311.954 280.438,328.946 283.844,318.547 	"/>
	<polygon fill="#323232" points="275.52,302.211 264.496,311.954 283.844,318.547 	"/>
	<polygon fill="#262626" points="301.227,347.856 289.18,358.645 301.414,360.59 	"/>
	<polygon fill="#B2B2B2" points="289.18,358.645 299.781,364.454 301.414,360.59 	"/>
	<polygon fill="#646464" points="270.184,27.852 271.84,33.739 285.207,20.649 	"/>
	<polygon fill="#333333" points="269.328,18.071 270.184,27.852 285.207,20.649 	"/>
	<polygon fill="#202020" points="308.727,301.985 285.152,317.86 311.492,316.012 	"/>
	<polygon fill="#1E1E1E" points="266.531,384.86 271.613,397.766 287.684,389.594 	"/>
	<polygon fill="#1C1C1C" points="271.613,397.766 276.262,399.949 287.684,389.594 	"/>
	<polygon fill="#484848" points="310.906,52.914 299.977,53.828 311.27,55.129 	"/>
	<polygon fill="#494949" points="294.832,62.532 294.445,73.844 297.785,72.934 	"/>
	<polygon fill="#919191" points="289.18,358.645 292.176,366.68 299.781,364.454 	"/>
	<polygon fill="#3A3A3A" points="286.844,321.586 301.227,347.856 308.844,345.715 	"/>
	<polygon fill="#232323" points="259.105,93.836 255.438,100.223 289.5,101.391 	"/>
	<polygon fill="#212121" points="273.922,86.672 259.105,93.836 289.5,101.391 	"/>
	<polygon fill="#1C1C1C" points="283.379,88.43 273.922,86.672 289.5,101.391 	"/>
	<polygon fill="#2B2B2B" points="255.438,100.223 252.902,111 289.5,101.391 	"/>
	<polygon fill="#757575" points="258.605,148.293 271.664,156.133 289.523,145.258 	"/>
	<polygon fill="#5D5D5D" points="271.664,156.133 281.824,157.102 289.523,145.258 	"/>
	<polygon fill="#181818" points="289.523,145.258 281.824,157.102 290.832,146.555 	"/>
	<polygon fill="#212121" points="311.402,123.461 305.238,140.078 311.496,128.825 	"/>
	<polygon fill="#1B1B1B" points="289.18,358.645 264.75,372.008 292.176,366.68 	"/>
	<polygon fill="#5A5A5A" points="281.824,157.102 278.676,175.645 290.113,164.594 	"/>
	<polygon fill="#444444" points="271.84,33.739 288.688,46.219 296,34.887 	"/>
	<polygon fill="#282828" points="285.207,20.649 271.84,33.739 296,34.887 	"/>
	<polygon fill="#333333" points="264.75,372.008 289.66,382.629 292.176,366.68 	"/>
	<polygon fill="#3C3C3C" points="293.719,379.797 289.66,382.629 297.148,391.958 	"/>
	<polygon fill="#1C1C1C" points="284.527,75.887 283.379,88.43 294.445,73.844 	"/>
	<polygon fill="#828282" points="284.527,75.887 294.445,73.844 294.832,62.532 	"/>
	<polygon fill="#909090" points="276.648,55.719 284.527,75.887 294.832,62.532 	"/>
	<polygon fill="#595959" points="282.91,50.278 276.648,55.719 294.832,62.532 	"/>
	<polygon fill="#1D1D1D" points="263.852,261.973 275.52,302.211 296.105,294.442 	"/>
	<polygon fill="#202020" points="287.859,253.008 263.852,261.973 296.105,294.442 	"/>
	<polygon fill="#383838" points="275.52,302.211 285.152,317.86 296.105,294.442 	"/>
	<polygon fill="#585858" points="301.227,347.856 301.414,360.59 308.844,345.715 	"/>
	<polygon fill="#343434" points="289.523,145.258 305.238,140.078 311.402,123.461 	"/>
	<polygon fill="#1D1D1D" points="289.5,101.391 289.523,145.258 311.402,123.461 	"/>
	<polygon fill="#2D2D2D" points="289.523,145.258 290.832,146.555 305.238,140.078 	"/>
	<polygon fill="#8C8C8C" points="287.684,389.594 278.227,408.489 297.148,391.958 	"/>
	<polygon fill="#6B6B6B" points="285.152,317.86 286.844,321.586 311.492,316.012 	"/>
	<polygon fill="#1E1E1E" points="335.746,261.055 334.957,265.282 336.91,266.512 	"/>
	<polygon fill="#737373" points="289.66,382.629 287.684,389.594 297.148,391.958 	"/>
	<polygon fill="#D1D1D1" points="300,43.887 288.688,46.219 300.93,51.805 	"/>
	<polygon fill="#787878" points="292.176,366.68 296.863,373.872 298.863,366.192 	"/>
	<polygon fill="#535353" points="288.688,46.219 299.977,53.828 300.93,51.805 	"/>
	<polygon fill="#FEFEFE" points="311.266,280.489 332.738,282.485 332.938,274.965 	"/>
	<polygon fill="#D0D0D0" points="316.316,46.004 311.27,55.129 327.703,49.825 	"/>
	<polygon fill="#404040" points="288.688,46.219 294.832,62.532 299.977,53.828 	"/>
	<polygon fill="#222222" points="296.863,373.872 305.953,399.051 312.84,363.645 	"/>
	<polygon fill="#373737" points="297.148,391.958 305.32,401.407 305.953,399.051 	"/>
	<polygon fill="#343434" points="286.844,321.586 280.438,328.946 301.227,347.856 	"/>
	<polygon fill="#4B4B4B" points="280.438,328.946 289.18,358.645 301.227,347.856 	"/>
	<polygon fill="#272727" points="296.863,373.872 297.148,391.958 305.953,399.051 	"/>
	<polygon fill="#DEDEDE" points="300,43.887 300.93,51.805 307.133,45.938 	"/>
	<polygon fill="#1A1A1A" points="380.32,388.653 376.242,398.215 382.305,390.43 	"/>
	<polygon fill="#222222" points="312.84,363.645 305.953,399.051 376.242,398.215 	"/>
	<polygon fill="#1D1D1D" points="280.027,415.594 281,423.887 305.32,401.407 	"/>
	<polygon fill="#1E1E1E" points="281,423.887 283,432.887 305.32,401.407 	"/>
	<polygon fill="#1E1E1E" points="297.148,391.958 278.227,408.489 305.32,401.407 	"/>
	<polygon fill="#5A5A5A" points="278.227,408.489 280.027,415.594 305.32,401.407 	"/>
	<polygon fill="#BBBBBB" points="343.668,217.922 343.129,227.086 354.355,232.754 	"/>
	<polygon fill="#2E2E2E" points="294.445,73.844 283.379,88.43 307.207,76.629 	"/>
	<polygon fill="#242424" points="283.379,88.43 289.5,101.391 307.207,76.629 	"/>
	<polygon fill="#373737" points="297.785,72.934 294.445,73.844 307.207,76.629 	"/>
	<polygon fill="#222222" points="296.105,294.442 285.152,317.86 308.727,301.985 	"/>
	<polygon fill="#222222" points="306.996,292.356 304.676,292.106 308.727,301.985 	"/>
	<polygon fill="#1E1E1E" points="304.676,292.106 296.105,294.442 308.727,301.985 	"/>
	<polygon fill="#474747" points="321.594,72.875 320.586,75.739 327.91,79.035 	"/>
	<polygon fill="#2E2E2E" points="294.832,62.532 297.785,72.934 313.441,64.02 	"/>
	<polygon fill="#515151" points="300.93,51.805 299.977,53.828 310.906,52.914 	"/>
	<polygon fill="#3C3C3C" points="307.133,45.938 300.93,51.805 310.906,52.914 	"/>
	<polygon fill="#6C6C6C" points="301.414,360.59 299.781,364.454 312.84,363.645 	"/>
	<polygon fill="#262626" points="304.676,292.106 306.996,292.356 311.266,280.489 	"/>
	<polygon fill="#222222" points="296.105,294.442 304.676,292.106 311.266,280.489 	"/>
	<polygon fill="#363636" points="297.785,72.934 307.207,76.629 313.441,64.02 	"/>
	<polygon fill="#6B6B6B" points="292.152,252.708 296.105,294.442 311.266,280.489 	"/>
	<polygon fill="#3E3E3E" points="307.207,76.629 289.5,101.391 315.523,79.125 	"/>
	<polygon fill="#585858" points="299.781,364.454 298.863,366.192 312.84,363.645 	"/>
	<polygon fill="#252525" points="298.863,366.192 296.863,373.872 312.84,363.645 	"/>
	<polygon fill="#4A4A4A" points="286.844,321.586 308.844,345.715 311.492,316.012 	"/>
	<polygon fill="#232323" points="311.078,302.047 308.727,301.985 311.492,316.012 	"/>
	<polygon fill="#8B8B8B" points="308.844,345.715 301.414,360.59 312.84,363.645 	"/>
	<polygon fill="#3F3F3F" points="315.523,79.125 320.586,75.739 321.594,72.875 	"/>
	<polygon fill="#565656" points="299.977,53.828 294.832,62.532 313.441,64.02 	"/>
	<polygon fill="#3B3B3B" points="311.27,55.129 299.977,53.828 313.441,64.02 	"/>
	<polygon fill="#1C1C1C" points="331.945,291.727 329.84,303.911 333.93,304.372 	"/>
	<polygon fill="#444444" points="313.441,64.02 315.523,79.125 321.594,72.875 	"/>
	<polygon fill="#4B4B4B" points="333.246,85.727 315.523,79.125 333.73,98.75 	"/>
	<polygon fill="#535353" points="310.906,52.914 311.27,55.129 316.316,46.004 	"/>
	<polygon fill="#747474" points="306.996,292.356 311.078,302.047 318.707,294.649 	"/>
	<polygon fill="#D0D0D0" points="343.668,217.922 366.922,232.18 369.312,197.641 	"/>
	<polygon fill="#2A2A2A" points="315.523,79.125 289.5,101.391 328.363,114.141 	"/>
	<polygon fill="#1C1C1C" points="289.5,101.391 311.402,123.461 328.363,114.141 	"/>
	<polygon fill="#383838" points="320.586,75.739 315.523,79.125 327.91,79.035 	"/>
	<polygon fill="#222222" points="338.078,285.852 331.945,291.727 339.023,302.176 	"/>
	<polygon fill="#494949" points="315.523,79.125 328.363,114.141 333.73,98.75 	"/>
	<polygon fill="#1D1D1D" points="338.078,285.852 348.422,295.856 353.031,260.579 	"/>
	<polygon fill="#212121" points="337.883,272.094 335.086,274.524 338.078,285.852 	"/>
	<polygon fill="#262626" points="331.945,291.727 333.93,304.372 339.023,302.176 	"/>
	<polygon fill="#E4E4E4" points="327.91,79.035 315.523,79.125 333.246,85.727 	"/>
	<polygon fill="#656565" points="313.441,64.02 321.594,72.875 330.871,59.168 	"/>
	<polygon fill="#ABABAB" points="327.703,49.825 311.27,55.129 330.871,59.168 	"/>
	<polygon fill="#525252" points="311.27,55.129 313.441,64.02 330.871,59.168 	"/>
	<polygon fill="#525252" points="330.871,59.168 321.594,72.875 330.953,70.727 	"/>
	<polygon fill="#DFDFDF" points="321.594,72.875 327.91,79.035 330.953,70.727 	"/>
	<polygon fill="#171717" points="329.828,286.977 319.594,293.387 331.945,291.727 	"/>
	<polygon fill="#1F1F1F" points="319.594,293.387 329.84,303.911 331.945,291.727 	"/>
	<polygon fill="#B0B0B0" points="324.738,262.946 334.957,265.282 335.746,261.055 	"/>
	<polygon fill="#F7F7F7" points="321.75,267.208 332.938,274.965 333.609,271.825 	"/>
	<polygon fill="#1F1F1F" points="332.738,282.485 329.828,286.977 333.637,287.665 	"/>
	<polygon fill="#232323" points="358.953,249.684 360.348,247.618 360.77,245.958 	"/>
	<polygon fill="#252525" points="333.609,271.825 332.938,274.965 335.086,274.524 	"/>
	<polygon fill="#262626" points="329.828,286.977 331.945,291.727 333.637,287.665 	"/>
	<polygon fill="#D3D3D3" points="366.922,232.18 360.77,245.958 372.047,248.118 	"/>
	<polygon fill="#1D1D1D" points="388.352,349.309 402.309,373.512 405.902,366.524 	"/>
	<polygon fill="#2D2D2D" points="311.492,316.012 308.844,345.715 333.93,304.372 	"/>
	<polygon fill="#1B1B1B" points="329.84,303.911 311.492,316.012 333.93,304.372 	"/>
	<polygon fill="#484848" points="328.363,114.141 311.402,123.461 335.52,128.141 	"/>
	<polygon fill="#686868" points="324.738,262.946 333.609,271.825 334.957,265.282 	"/>
	<polygon fill="#373737" points="311.402,123.461 311.496,128.825 335.52,128.141 	"/>
	<polygon fill="#BABABA" points="323.875,257.399 335.746,261.055 337.84,243.383 	"/>
	<polygon fill="#212121" points="332.938,274.965 332.738,282.485 335.086,274.524 	"/>
	<polygon fill="#232323" points="360.77,245.958 360.348,247.618 372.047,248.118 	"/>
	<polygon fill="#1C1C1C" points="334.957,265.282 333.609,271.825 336.91,266.512 	"/>
	<polygon fill="#262626" points="335.086,274.524 332.738,282.485 338.078,285.852 	"/>
	<polygon fill="#8A8A8A" points="341.371,160.25 347.914,165.594 348.336,164.973 	"/>
	<polygon fill="#CBCBCB" points="366.922,232.18 372.047,248.118 385.957,247.657 	"/>
	<polygon fill="#232323" points="333.609,271.825 335.086,274.524 337.883,272.094 	"/>
	<polygon fill="#212121" points="336.91,266.512 333.609,271.825 337.883,272.094 	"/>
	<polygon fill="#B7B7B7" points="346.766,154.617 341.371,160.25 348.336,164.973 	"/>
	<polygon fill="#282828" points="333.637,287.665 331.945,291.727 338.078,285.852 	"/>
	<polygon fill="#1A1A1A" points="376.242,398.215 379.961,398.918 382.305,390.43 	"/>
	<polygon fill="#1D1D1D" points="380.32,388.653 389.637,386.411 392.586,383.243 	"/>
	<polygon fill="#212121" points="337.883,272.094 338.078,285.852 353.031,260.579 	"/>
	<polygon fill="#323232" points="354.355,232.754 358.953,249.684 360.77,245.958 	"/>
	<polygon fill="#1C1C1C" points="347.348,254.575 336.91,266.512 353.031,260.579 	"/>
	<polygon fill="#1F1F1F" points="360.348,247.618 358.953,249.684 372.047,248.118 	"/>
	<polygon fill="#313131" points="325.629,238.372 337.84,243.383 343.129,227.086 	"/>
	<polygon fill="#212121" points="358.953,249.684 353.031,260.579 372.047,248.118 	"/>
	<polygon fill="#1D1D1D" points="338.078,285.852 339.023,302.176 348.422,295.856 	"/>
	<polygon fill="#292929" points="343.129,227.086 337.84,243.383 354.355,232.754 	"/>
	<polygon fill="#1E1E1E" points="335.746,261.055 336.91,266.512 347.348,254.575 	"/>
	<polygon fill="#1B1B1B" points="337.84,243.383 335.746,261.055 347.348,254.575 	"/>
	<polygon fill="#CFCFCF" points="341.371,160.25 343.543,176.985 347.914,165.594 	"/>
	<polygon fill="#212121" points="336.91,266.512 337.883,272.094 353.031,260.579 	"/>
	<polygon fill="#D7D7D7" points="346.543,141.813 346.766,154.617 365,128.887 	"/>
	<polygon fill="#FEFEFE" points="411.828,341.086 410.863,343.826 412.914,344.118 	"/>
	<polygon fill="#1A1A1A" points="379.961,398.918 376.242,398.215 383.57,401.168 	"/>
	<polygon fill="#DBDBDB" points="358,106.887 350,123.887 365,128.887 	"/>
	<polygon fill="#1C1C1C" points="347.348,254.575 353.031,260.579 358.953,249.684 	"/>
	<polygon fill="#242424" points="354.355,232.754 337.84,243.383 358.953,249.684 	"/>
	<polygon fill="#232323" points="337.84,243.383 347.348,254.575 358.953,249.684 	"/>
	<polygon fill="#D7D7D7" points="358,106.887 365,128.887 370,101.887 	"/>
	<polygon fill="#DDDDDD" points="350,123.887 346.543,141.813 365,128.887 	"/>
	<polygon fill="#E1E1E1" points="356.309,72.711 358,106.887 370,101.887 	"/>
	<polygon fill="#D3D3D3" points="354.355,232.754 360.77,245.958 366.922,232.18 	"/>
	<polygon fill="#D2D2D2" points="343.668,217.922 354.355,232.754 366.922,232.18 	"/>
	<polygon fill="#C8C8C8" points="347.914,165.594 343.543,176.985 369.312,197.641 	"/>
	<polygon fill="#D0D0D0" points="348.336,164.973 347.914,165.594 369.312,197.641 	"/>
	<polygon fill="#BABABA" points="338.723,215.411 343.668,217.922 369.312,197.641 	"/>
	<polygon fill="#CBCBCB" points="343.543,176.985 338.723,215.411 369.312,197.641 	"/>
	<polygon fill="#1B1B1B" points="383.57,401.168 376.242,398.215 384.914,403.754 	"/>
	<polygon fill="#1A1A1A" points="372.047,248.118 353.031,260.579 378.887,269.829 	"/>
	<polygon fill="#1C1C1C" points="353.031,260.579 348.422,295.856 378.887,269.829 	"/>
	<polygon fill="#DADADA" points="383.992,30.672 356.309,72.711 395.145,48.383 	"/>
	<polygon fill="#1A1A1A" points="305.953,399.051 305.32,401.407 376.242,398.215 	"/>
	<polygon fill="#DFDFDF" points="356.309,72.711 370,101.887 395.145,48.383 	"/>
	<polygon fill="#1B1B1B" points="389.859,248.825 385.957,247.657 391.527,257.336 	"/>
	<polygon fill="#A3A3A3" points="369.312,197.641 383.547,207.168 394.195,204.973 	"/>
	<polygon fill="#1C1C1C" points="372.047,248.118 378.887,269.829 385.957,247.657 	"/>
	<polygon fill="#1C1C1C" points="312.84,363.645 376.242,398.215 380.32,388.653 	"/>
	<polygon fill="#1B1B1B" points="385.957,247.657 378.887,269.829 391.527,257.336 	"/>
	<polygon fill="#1B1B1B" points="384.914,403.754 376.242,398.215 390,425.887 	"/>
	<polygon fill="#CDCDCD" points="369.312,197.641 366.922,232.18 383.547,207.168 	"/>
	<polygon fill="#1A1A1A" points="382.305,390.43 379.961,398.918 383.57,401.168 	"/>
	<polygon fill="#696969" points="385.957,247.657 389.859,248.825 400.828,230.961 	"/>
	<polygon fill="#1B1B1B" points="308.844,345.715 312.84,363.645 388.352,349.309 	"/>
	<polygon fill="#1C1C1C" points="333.93,304.372 308.844,345.715 388.352,349.309 	"/>
	<polygon fill="#242424" points="339.023,302.176 333.93,304.372 388.352,349.309 	"/>
	<polygon fill="#1D1D1D" points="312.84,363.645 380.32,388.653 388.352,349.309 	"/>
	<polygon fill="#1C1C1C" points="348.422,295.856 339.023,302.176 394.684,315.826 	"/>
	<polygon fill="#363636" points="413.172,138.032 417.973,143.477 419.27,141.809 	"/>
	<polygon fill="#1A1A1A" points="388.352,349.309 380.32,388.653 392.586,383.243 	"/>
	<polygon fill="#C4C4C4" points="389.637,386.411 397.898,393.098 398.781,389.333 	"/>
	<polygon fill="#353535" points="394.684,315.826 401.66,333.266 403.91,331.36 	"/>
	<polygon fill="#1C1C1C" points="380.32,388.653 382.305,390.43 389.637,386.411 	"/>
	<polygon fill="#1C1C1C" points="305.32,401.407 283,432.887 390,425.887 	"/>
	<polygon fill="#1A1A1A" points="376.242,398.215 305.32,401.407 390,425.887 	"/>
	<polygon fill="#555555" points="383.57,401.168 396.004,402.016 396.73,398.997 	"/>
	<polygon fill="#989898" points="394.195,204.973 383.547,207.168 395.242,205.497 	"/>
	<polygon fill="#272727" points="378.887,269.829 348.422,295.856 394.684,315.826 	"/>
	<polygon fill="#1C1C1C" points="339.023,302.176 388.352,349.309 394.684,315.826 	"/>
	<polygon fill="#1B1B1B" points="388.352,349.309 393.953,345.165 394.684,315.826 	"/>
	<polygon fill="#1C1C1C" points="383.57,401.168 384.914,403.754 396.004,402.016 	"/>
	<polygon fill="#1C1C1C" points="391.527,257.336 378.887,269.829 402.039,270.016 	"/>
	<polygon fill="#9B9B9B" points="395.242,205.497 403.887,221.961 408.746,207.844 	"/>
	<polygon fill="#D3D3D3" points="365,128.887 346.766,154.617 399.906,157.918 	"/>
	<polygon fill="#CECECE" points="346.766,154.617 348.336,164.973 399.906,157.918 	"/>
	<polygon fill="#1C1C1C" points="392.586,383.243 389.637,386.411 398.781,389.333 	"/>
	<polygon fill="#1B1B1B" points="382.305,390.43 383.57,401.168 396.73,398.997 	"/>
	<polygon fill="#1B1B1B" points="389.637,386.411 382.305,390.43 396.73,398.997 	"/>
	<polygon fill="#5A5A5A" points="407.043,163.93 399.906,157.918 407.461,178.91 	"/>
	<polygon fill="#C4C4C4" points="398.82,0 397.613,1.68 406.293,-0.734 	"/>
	<polygon fill="#818181" points="389.637,386.411 396.73,398.997 397.898,393.098 	"/>
	<polygon fill="#B5B5B5" points="409.957,7.383 397.613,1.68 411.66,14.535 	"/>
	<polygon fill="#BEBEBE" points="399.906,157.918 369.312,197.641 407.461,178.91 	"/>
	<polygon fill="#AFAFAF" points="369.312,197.641 394.195,204.973 407.461,178.91 	"/>
	<polygon fill="#DADADA" points="348.336,164.973 369.312,197.641 399.906,157.918 	"/>
	<polygon fill="#AAAAAA" points="383.547,207.168 366.922,232.18 400.828,230.961 	"/>
	<polygon fill="#BEBEBE" points="366.922,232.18 385.957,247.657 400.828,230.961 	"/>
	<polygon fill="#232323" points="409.816,252.934 391.527,257.336 410.918,263.813 	"/>
	<polygon fill="#1B1B1B" points="394.684,315.826 393.953,345.165 401.66,333.266 	"/>
	<polygon fill="#1D1D1D" points="391.527,257.336 402.039,270.016 410.918,263.813 	"/>
	<polygon fill="#1F1F1F" points="388.352,349.309 392.586,383.243 402.309,373.512 	"/>
	<polygon fill="#A3A3A3" points="407.043,163.93 407.461,178.91 408.723,178.617 	"/>
	<polygon fill="#B2B2B2" points="418.18,47.848 418.008,50.075 421.109,57.012 	"/>
	<polygon fill="#808080" points="395.242,205.497 383.547,207.168 403.887,221.961 	"/>
	<polygon fill="#787878" points="383.547,207.168 400.828,230.961 403.887,221.961 	"/>
	<polygon fill="#8E8E8E" points="394.195,204.973 395.242,205.497 407.461,178.91 	"/>
	<polygon fill="#9C9C9C" points="424.266,115.938 430.141,121.153 431.898,117.649 	"/>
	<polygon fill="#565656" points="407.461,178.91 395.242,205.497 408.746,207.844 	"/>
	<polygon fill="#545454" points="401.66,333.266 410.863,343.826 411.828,341.086 	"/>
	<polygon fill="#252525" points="402.039,270.016 378.887,269.829 406.602,292.122 	"/>
	<polygon fill="#262626" points="378.887,269.829 394.684,315.826 406.602,292.122 	"/>
	<polygon fill="#C0C0C0" points="411.66,14.535 383.992,30.672 419,22.887 	"/>
	<polygon fill="#191919" points="410.863,343.826 393.953,345.165 411.797,352.805 	"/>
	<polygon fill="#D8D8D8" points="397.613,1.68 383.992,30.672 411.66,14.535 	"/>
	<polygon fill="#1C1C1C" points="393.953,345.165 388.352,349.309 407.992,361.258 	"/>
	<polygon fill="#141414" points="388.352,349.309 405.902,366.524 407.992,361.258 	"/>
	<polygon fill="#191919" points="389.859,248.825 391.527,257.336 409.816,252.934 	"/>
	<polygon fill="#454545" points="394.684,315.826 403.91,331.36 408.188,323.59 	"/>
	<polygon fill="#E7E7E7" points="393.953,345.165 407.992,361.258 411.797,352.805 	"/>
	<polygon fill="#1E1E1E" points="401.66,333.266 393.953,345.165 410.863,343.826 	"/>
	<polygon fill="#C9C9C9" points="406.293,-0.734 397.613,1.68 409.957,7.383 	"/>
	<polygon fill="#A3A3A3" points="399.906,157.918 411.816,147.473 413.172,138.032 	"/>
	<polygon fill="#D7D7D7" points="383.992,30.672 395.145,48.383 419,22.887 	"/>
	<polygon fill="#1C1C1C" points="389.859,248.825 409.816,252.934 410.836,248.766 	"/>
	<polygon fill="#B4B4B4" points="406.293,-0.734 422.648,5.071 424.742,5.68 	"/>
	<polygon fill="#242424" points="400.828,230.961 389.859,248.825 410.836,248.766 	"/>
	<polygon fill="#CBCBCB" points="365,128.887 399.906,157.918 413.172,138.032 	"/>
	<polygon fill="#A8A8A8" points="411.816,147.473 399.906,157.918 411.836,153.137 	"/>
	<polygon fill="#CBCBCB" points="370,101.887 365,128.887 413.172,138.032 	"/>
	<polygon fill="#8C8C8C" points="421.039,109.196 422.957,118.039 424.266,115.938 	"/>
	<polygon fill="#F3F3F3" points="416.355,307.208 409.699,322.848 417.07,320.899 	"/>
	<polygon fill="#E0E0E0" points="395.145,48.383 417.293,44.785 419,22.887 	"/>
	<polygon fill="#3E3E3E" points="399.906,157.918 407.043,163.93 411.836,153.137 	"/>
	<polygon fill="#C9C9C9" points="417.293,44.785 418.008,50.075 418.18,47.848 	"/>
	<polygon fill="#1F1F1F" points="403.91,331.36 401.66,333.266 412.746,338.36 	"/>
	<polygon fill="#181818" points="401.66,333.266 411.828,341.086 412.746,338.36 	"/>
	<polygon fill="#F9F9F9" points="409.699,322.848 414.902,329.622 417.07,320.899 	"/>
	<polygon fill="#B3B3B3" points="403.91,331.36 412.746,338.36 413.922,334.199 	"/>
	<polygon fill="#D3D3D3" points="370,101.887 413.172,138.032 414.074,98.258 	"/>
	<polygon fill="#DCDCDC" points="395.145,48.383 370,101.887 414.074,98.258 	"/>
	<polygon fill="#1B1B1B" points="402.039,270.016 406.602,292.122 414.926,272.743 	"/>
	<polygon fill="#2E2E2E" points="403.91,331.36 413.922,334.199 414.902,329.622 	"/>
	<polygon fill="#222222" points="408.188,323.59 403.91,331.36 414.902,329.622 	"/>
	<polygon fill="#1A1A1A" points="406.602,292.122 394.684,315.826 414.883,299.403 	"/>
	<polygon fill="#292929" points="409.699,322.848 408.188,323.59 414.902,329.622 	"/>
	<polygon fill="#595959" points="413.172,138.032 419.27,141.809 422.238,139.059 	"/>
	<polygon fill="#2B2B2B" points="408.188,323.59 409.699,322.848 416.355,307.208 	"/>
	<polygon fill="#1D1D1D" points="414.883,299.403 394.684,315.826 416.355,307.208 	"/>
	<polygon fill="#1B1B1B" points="394.684,315.826 408.188,323.59 416.355,307.208 	"/>
	<polygon fill="#CECECE" points="426.816,127.555 433.734,134.344 434.914,131.16 	"/>
	<polygon fill="#8E8E8E" points="421.039,109.196 413.172,138.032 422.957,118.039 	"/>
	<polygon fill="#646464" points="411.836,153.137 407.043,163.93 418.84,159.641 	"/>
	<polygon fill="#E4E4E4" points="407.043,163.93 408.723,178.617 418.84,159.641 	"/>
	<polygon fill="#444444" points="411.816,147.473 411.836,153.137 417.973,143.477 	"/>
	<polygon fill="#3E3E3E" points="413.172,138.032 411.816,147.473 417.973,143.477 	"/>
	<polygon fill="#C6C6C6" points="426.219,113.985 424.266,115.938 431.898,117.649 	"/>
	<polygon fill="#DADADA" points="417.293,44.785 395.145,48.383 418.008,50.075 	"/>
	<polygon fill="#414141" points="417.973,143.477 411.836,153.137 418.84,159.641 	"/>
	<polygon fill="#B4B4B4" points="425.965,113.602 424.266,115.938 426.219,113.985 	"/>
	<polygon fill="#5B5B5B" points="414.074,98.258 413.172,138.032 421.039,109.196 	"/>
	<polygon fill="#D9D9D9" points="418.008,50.075 395.145,48.383 421.109,57.012 	"/>
	<polygon fill="#C3C3C3" points="418.18,47.848 421.109,57.012 426,39.887 	"/>
	<polygon fill="#D8D8D8" points="395.145,48.383 414.074,98.258 421.109,57.012 	"/>
	<polygon fill="#D6D6D6" points="406.293,-0.734 409.957,7.383 422.648,5.071 	"/>
	<polygon fill="#C3C3C3" points="409.957,7.383 411.66,14.535 422.648,5.071 	"/>
	<polygon fill="#C6C6C6" points="411.66,14.535 419,22.887 422.648,5.071 	"/>
	<polygon fill="#5F5F5F" points="413.172,138.032 422.238,139.059 422.754,137.785 	"/>
	<polygon fill="#CACACA" points="430.32,99.352 426.219,113.985 431.898,117.649 	"/>
	<polygon fill="#5C5C5C" points="422.957,118.039 426.816,127.555 430.141,121.153 	"/>
	<polygon fill="#B2B2B2" points="422.957,118.039 413.172,138.032 426.816,127.555 	"/>
	<polygon fill="#969696" points="439.312,90.301 430.32,99.352 450.32,107.34 	"/>
	<polygon fill="#9E9E9E" points="421.039,109.196 424.266,115.938 425.965,113.602 	"/>
	<polygon fill="#B0B0B0" points="419,22.887 417.293,44.785 426,39.887 	"/>
	<polygon fill="#BEBEBE" points="417.293,44.785 418.18,47.848 426,39.887 	"/>
	<polygon fill="#454545" points="413.172,138.032 422.754,137.785 426.816,127.555 	"/>
	<polygon fill="#D0D0D0" points="419.27,141.809 417.973,143.477 428.254,163.836 	"/>
	<polygon fill="#5C5C5C" points="422.754,137.785 422.238,139.059 433.734,134.344 	"/>
	<polygon fill="#BEBEBE" points="425.965,113.602 426.219,113.985 430.32,99.352 	"/>
	<polygon fill="#8E8E8E" points="430.32,99.352 431.898,117.649 450.32,107.34 	"/>
	<polygon fill="#C2C2C2" points="424.266,115.938 422.957,118.039 430.141,121.153 	"/>
	<polygon fill="#C8C8C8" points="414.074,98.258 421.039,109.196 430.32,99.352 	"/>
	<polygon fill="#8C8C8C" points="421.039,109.196 425.965,113.602 430.32,99.352 	"/>
	<polygon fill="#D1D1D1" points="445,80.887 439.312,90.301 450.32,107.34 	"/>
	<polygon fill="#4F4F4F" points="426.816,127.555 422.754,137.785 433.734,134.344 	"/>
	<polygon fill="#E0E0E0" points="414.074,98.258 430.32,99.352 436.09,76.625 	"/>
	<polygon fill="#6B6B6B" points="430.141,121.153 426.816,127.555 434.914,131.16 	"/>
	<polygon fill="#E1E1E1" points="421.109,57.012 414.074,98.258 436.09,76.625 	"/>
	<polygon fill="#767676" points="431.898,117.649 430.141,121.153 439.734,127.778 	"/>
	<polygon fill="#B0B0B0" points="436.09,76.625 430.32,99.352 439.312,90.301 	"/>
	<polygon fill="#D3D3D3" points="436.09,76.625 439.312,90.301 445,80.887 	"/>
</g>
</svg>
